<mxfile host="65bd71144e">
    <diagram id="1e_iy3KKnYAK0C85__co" name="Page-1">
        <mxGraphModel dx="3194" dy="1908" grid="1" gridSize="10" guides="1" tooltips="1" connect="1" arrows="1" fold="1" page="1" pageScale="1" pageWidth="850" pageHeight="1100" math="0" shadow="0">
            <root>
                <mxCell id="0"/>
                <mxCell id="1" parent="0"/>
                <mxCell id="418" value="" style="rounded=1;whiteSpace=wrap;html=1;fontSize=28;fillColor=#FFF2CC;strokeColor=#000000;fontColor=#ffffff;fillStyle=auto;strokeWidth=3;" parent="1" vertex="1">
                    <mxGeometry x="393.6" y="-697.75" width="1030" height="510" as="geometry"/>
                </mxCell>
                <mxCell id="38" style="edgeStyle=none;html=1;entryX=1;entryY=1;entryDx=0;entryDy=0;strokeWidth=3;exitX=0.12;exitY=0.1;exitDx=0;exitDy=0;exitPerimeter=0;strokeColor=#000000;" parent="1" source="240" target="34" edge="1">
                    <mxGeometry relative="1" as="geometry">
                        <mxPoint x="863.7557894736841" y="-670.1382978723404" as="sourcePoint"/>
                    </mxGeometry>
                </mxCell>
                <mxCell id="39" style="edgeStyle=none;html=1;entryX=0.75;entryY=1;entryDx=0;entryDy=0;strokeWidth=3;strokeColor=#000000;" parent="1" source="240" target="35" edge="1">
                    <mxGeometry relative="1" as="geometry">
                        <mxPoint x="924.075789473684" y="-670.1382978723404" as="sourcePoint"/>
                    </mxGeometry>
                </mxCell>
                <mxCell id="36" style="edgeStyle=none;html=1;exitX=0.5;exitY=0;exitDx=0;exitDy=0;exitPerimeter=0;strokeWidth=3;strokeColor=#000000;" parent="1" source="241" edge="1">
                    <mxGeometry relative="1" as="geometry">
                        <mxPoint x="653.1242105263158" y="-670.1382978723404" as="sourcePoint"/>
                        <mxPoint x="553.6" y="-767.75" as="targetPoint"/>
                    </mxGeometry>
                </mxCell>
                <mxCell id="37" style="edgeStyle=none;html=1;exitX=0.88;exitY=0.1;exitDx=0;exitDy=0;exitPerimeter=0;entryX=0;entryY=0.75;entryDx=0;entryDy=0;strokeWidth=3;strokeColor=#000000;" parent="1" source="241" target="35" edge="1">
                    <mxGeometry relative="1" as="geometry">
                        <mxPoint x="686.458947368421" y="-680.75" as="sourcePoint"/>
                    </mxGeometry>
                </mxCell>
                <mxCell id="35" value="" style="aspect=fixed;perimeter=ellipsePerimeter;html=1;align=center;shadow=0;dashed=0;spacingTop=3;image;image=img/lib/active_directory/internet_cloud.svg;" parent="1" vertex="1">
                    <mxGeometry x="843.2900000000001" y="-897.75" width="224.6" height="141.5" as="geometry"/>
                </mxCell>
                <mxCell id="8" value="" style="shape=mxgraph.cisco.switches.layer_3_switch;sketch=0;html=1;pointerEvents=1;dashed=0;fillColor=#036897;strokeColor=#000000;strokeWidth=2;verticalLabelPosition=bottom;verticalAlign=top;align=center;outlineConnect=0;points=[[0,0.5,0,0,0],[0,1,0,0,0],[0.08,0.05,0,0,0],[0.5,0,0,0,0],[0.5,1,0,0,0],[0.7,1,0,0,0],[0.95,0.94,0,0,0],[1,0,0,0,0],[1,0.5,0,0,0],[1,0.61,0,0,0]];" parent="1" vertex="1">
                    <mxGeometry x="502.81000000000006" y="-397.75" width="150" height="150" as="geometry"/>
                </mxCell>
                <mxCell id="34" value="" style="aspect=fixed;perimeter=ellipsePerimeter;html=1;align=center;shadow=0;dashed=0;spacingTop=3;image;image=img/lib/active_directory/internet_cloud.svg;" parent="1" vertex="1">
                    <mxGeometry x="483.6" y="-913" width="248.81" height="156.75" as="geometry"/>
                </mxCell>
                <mxCell id="229" value="" style="endArrow=none;html=1;entryX=0.985;entryY=0.147;entryDx=0;entryDy=0;entryPerimeter=0;exitX=0.16;exitY=0.24;exitDx=0;exitDy=0;exitPerimeter=0;movable=0;resizable=0;rotatable=0;deletable=0;editable=0;connectable=0;" parent="1" edge="1">
                    <mxGeometry width="50" height="50" relative="1" as="geometry">
                        <mxPoint x="720.1599999999999" y="782" as="sourcePoint"/>
                        <mxPoint x="220" y="820" as="targetPoint"/>
                    </mxGeometry>
                </mxCell>
                <mxCell id="240" value="" style="shape=mxgraph.cisco.routers.router;sketch=0;html=1;pointerEvents=1;dashed=0;fillColor=#036897;strokeColor=#000000;strokeWidth=2;verticalLabelPosition=bottom;verticalAlign=top;align=center;outlineConnect=0;points=[[0,0.5,0,0,0],[0,0.61,0,0,0],[0.12,0.1,0,0,0],[0.12,0.9,0,0,0],[0.5,0,0,0,0],[0.5,1,0,0,0],[0.88,0.1,0,0,0],[0.88,0.9,0,0,0],[1,0.5,0,0,0]];" parent="1" vertex="1">
                    <mxGeometry x="865.1800000000001" y="-667.75" width="151.58" height="103" as="geometry"/>
                </mxCell>
                <mxCell id="241" value="" style="shape=mxgraph.cisco.routers.router;sketch=0;html=1;pointerEvents=1;dashed=0;fillColor=#036897;strokeColor=#000000;strokeWidth=2;verticalLabelPosition=bottom;verticalAlign=top;align=center;outlineConnect=0;points=[[0,0.5,0,0,0],[0.12,0.1,0,0,0],[0.12,0.9,0,0,0],[0.5,0,0,0,0],[0.5,1,0,0,0],[0.88,0.1,0,0,0],[0.88,0.9,0,0,0],[1,0.5,0,0,0],[1,0.62,0,0,0]];" parent="1" vertex="1">
                    <mxGeometry x="502.0200000000001" y="-667.75" width="151.58" height="103" as="geometry"/>
                </mxCell>
                <mxCell id="243" value="" style="shape=mxgraph.cisco.switches.layer_3_switch;sketch=0;html=1;pointerEvents=1;dashed=0;fillColor=#036897;strokeColor=#000000;strokeWidth=2;verticalLabelPosition=bottom;verticalAlign=top;align=center;outlineConnect=0;points=[[0,0.5,0,0,0],[0,0.59,0,0,0],[0,1,0,0,0],[0.08,0.05,0,0,0],[0.5,0,0,0,0],[0.5,1,0,0,0],[0.73,1,0,0,0],[0.95,0.94,0,0,0],[1,0,0,0,0],[1,0.5,0,0,0]];" parent="1" vertex="1">
                    <mxGeometry x="866.7600000000001" y="-397.75" width="150" height="150" as="geometry"/>
                </mxCell>
                <mxCell id="244" value="" style="endArrow=none;html=1;strokeWidth=3;exitX=0.5;exitY=1;exitDx=0;exitDy=0;exitPerimeter=0;strokeColor=#000000;" parent="1" source="241" target="8" edge="1">
                    <mxGeometry width="50" height="50" relative="1" as="geometry">
                        <mxPoint x="633.6" y="-557.75" as="sourcePoint"/>
                        <mxPoint x="683.6" y="-607.75" as="targetPoint"/>
                    </mxGeometry>
                </mxCell>
                <mxCell id="245" value="" style="endArrow=none;html=1;strokeWidth=3;exitX=0.5;exitY=1;exitDx=0;exitDy=0;exitPerimeter=0;strokeColor=#000000;" parent="1" source="240" target="243" edge="1">
                    <mxGeometry width="50" height="50" relative="1" as="geometry">
                        <mxPoint x="1043.6000000000004" y="-547.75" as="sourcePoint"/>
                        <mxPoint x="1043.6" y="-380.75" as="targetPoint"/>
                    </mxGeometry>
                </mxCell>
                <mxCell id="246" value="" style="endArrow=none;html=1;strokeWidth=3;exitX=0.5;exitY=1;exitDx=0;exitDy=0;exitPerimeter=0;entryX=0.5;entryY=0;entryDx=0;entryDy=0;entryPerimeter=0;strokeColor=#000000;" parent="1" source="241" target="243" edge="1">
                    <mxGeometry width="50" height="50" relative="1" as="geometry">
                        <mxPoint x="949.39" y="-544.75" as="sourcePoint"/>
                        <mxPoint x="933.6" y="-397.75" as="targetPoint"/>
                    </mxGeometry>
                </mxCell>
                <mxCell id="247" value="" style="endArrow=none;html=1;strokeWidth=3;exitX=0.5;exitY=1;exitDx=0;exitDy=0;exitPerimeter=0;entryX=0.5;entryY=0;entryDx=0;entryDy=0;entryPerimeter=0;strokeColor=#000000;" parent="1" source="240" target="8" edge="1">
                    <mxGeometry width="50" height="50" relative="1" as="geometry">
                        <mxPoint x="587.8100000000005" y="-554.75" as="sourcePoint"/>
                        <mxPoint x="950.18" y="-377.75" as="targetPoint"/>
                    </mxGeometry>
                </mxCell>
                <mxCell id="248" value="" style="endArrow=none;html=1;strokeWidth=3;exitX=1;exitY=0.5;exitDx=0;exitDy=0;exitPerimeter=0;strokeColor=#000000;" parent="1" source="241" target="240" edge="1">
                    <mxGeometry width="50" height="50" relative="1" as="geometry">
                        <mxPoint x="587.8100000000001" y="-554.75" as="sourcePoint"/>
                        <mxPoint x="950.18" y="-377.75" as="targetPoint"/>
                    </mxGeometry>
                </mxCell>
                <mxCell id="249" value="" style="endArrow=none;html=1;strokeWidth=3;exitX=1;exitY=0.62;exitDx=0;exitDy=0;exitPerimeter=0;entryX=0;entryY=0.61;entryDx=0;entryDy=0;entryPerimeter=0;strokeColor=#000000;" parent="1" source="241" target="240" edge="1">
                    <mxGeometry width="50" height="50" relative="1" as="geometry">
                        <mxPoint x="663.6" y="-606.25" as="sourcePoint"/>
                        <mxPoint x="875.18" y="-606.25" as="targetPoint"/>
                    </mxGeometry>
                </mxCell>
                <mxCell id="250" value="" style="ellipse;whiteSpace=wrap;html=1;fillColor=none;strokeWidth=3;strokeColor=#000000;" parent="1" vertex="1">
                    <mxGeometry x="701.6" y="-649.75" width="32" height="80" as="geometry"/>
                </mxCell>
                <mxCell id="251" value="" style="ellipse;whiteSpace=wrap;html=1;fillColor=none;strokeWidth=3;strokeColor=#000000;" parent="1" vertex="1">
                    <mxGeometry x="797.6" y="-645.75" width="32" height="80" as="geometry"/>
                </mxCell>
                <mxCell id="252" value="" style="endArrow=none;html=1;strokeWidth=3;strokeColor=#000000;" parent="1" edge="1">
                    <mxGeometry width="50" height="50" relative="1" as="geometry">
                        <mxPoint x="655" y="-345" as="sourcePoint"/>
                        <mxPoint x="868" y="-347" as="targetPoint"/>
                    </mxGeometry>
                </mxCell>
                <mxCell id="253" value="" style="endArrow=none;html=1;strokeWidth=3;strokeColor=#000000;" parent="1" edge="1">
                    <mxGeometry width="50" height="50" relative="1" as="geometry">
                        <mxPoint x="654" y="-335" as="sourcePoint"/>
                        <mxPoint x="866" y="-335" as="targetPoint"/>
                    </mxGeometry>
                </mxCell>
                <mxCell id="254" value="" style="ellipse;whiteSpace=wrap;html=1;fillColor=none;strokeWidth=3;strokeColor=#000000;" parent="1" vertex="1">
                    <mxGeometry x="807" y="-374" width="22.4" height="60" as="geometry"/>
                </mxCell>
                <mxCell id="364" value="" style="rounded=1;whiteSpace=wrap;html=1;fontSize=28;fillColor=#FFF2CC;strokeColor=#000000;fontColor=#ffffff;strokeWidth=2;" parent="1" vertex="1">
                    <mxGeometry x="-968.45" y="240" width="868.45" height="580" as="geometry"/>
                </mxCell>
                <mxCell id="365" value="" style="shadow=0;dashed=0;html=1;strokeColor=#000000;fillColor=#4495D1;labelPosition=center;verticalLabelPosition=bottom;verticalAlign=top;align=center;outlineConnect=0;shape=mxgraph.veeam.2d.alarm;strokeWidth=2;" parent="1" vertex="1">
                    <mxGeometry x="-254.84999999999997" y="485" width="100" height="80" as="geometry"/>
                </mxCell>
                <mxCell id="366" value="" style="endArrow=none;html=1;entryX=0;entryY=1;entryDx=0;entryDy=0;entryPerimeter=0;strokeWidth=2;strokeColor=#000000;" parent="1" source="391" target="403" edge="1">
                    <mxGeometry width="50" height="50" relative="1" as="geometry">
                        <mxPoint x="-338.45" y="485" as="sourcePoint"/>
                        <mxPoint x="-278.45" y="385" as="targetPoint"/>
                    </mxGeometry>
                </mxCell>
                <mxCell id="367" value="" style="endArrow=none;html=1;entryX=-0.022;entryY=0.56;entryDx=0;entryDy=0;entryPerimeter=0;exitX=0.98;exitY=0.5;exitDx=0;exitDy=0;exitPerimeter=0;strokeWidth=2;strokeColor=#000000;" parent="1" source="391" target="365" edge="1">
                    <mxGeometry width="50" height="50" relative="1" as="geometry">
                        <mxPoint x="-348.45" y="495" as="sourcePoint"/>
                        <mxPoint x="-278.45" y="525" as="targetPoint"/>
                    </mxGeometry>
                </mxCell>
                <mxCell id="368" value="" style="endArrow=none;html=1;entryX=0;entryY=0.67;entryDx=0;entryDy=0;entryPerimeter=0;strokeWidth=2;strokeColor=#000000;" parent="1" source="391" target="406" edge="1">
                    <mxGeometry width="50" height="50" relative="1" as="geometry">
                        <mxPoint x="-358.45" y="505" as="sourcePoint"/>
                        <mxPoint x="-278.45" y="565" as="targetPoint"/>
                    </mxGeometry>
                </mxCell>
                <mxCell id="369" value="&lt;font color=&quot;#000000&quot; style=&quot;font-size: 20px;&quot;&gt;&lt;b style=&quot;font-size: 20px;&quot;&gt;7 Phones&lt;br style=&quot;font-size: 20px;&quot;&gt;&lt;/b&gt;&lt;/font&gt;" style="text;html=1;strokeColor=none;fillColor=none;align=center;verticalAlign=middle;whiteSpace=wrap;rounded=0;strokeWidth=2;fontSize=20;" parent="1" vertex="1">
                    <mxGeometry x="-608.45" y="673.6" width="102.03" height="30" as="geometry"/>
                </mxCell>
                <mxCell id="371" value="" style="ellipse;whiteSpace=wrap;html=1;fontSize=28;fillColor=none;strokeWidth=2;strokeColor=#000000;" parent="1" vertex="1">
                    <mxGeometry x="-638.45" y="287" width="19.5" height="56.4" as="geometry"/>
                </mxCell>
                <mxCell id="372" value="" style="endArrow=none;html=1;entryX=0;entryY=0.5;entryDx=0;entryDy=0;entryPerimeter=0;exitX=1;exitY=0.5;exitDx=0;exitDy=0;exitPerimeter=0;movable=1;resizable=1;rotatable=1;deletable=1;editable=1;connectable=1;strokeWidth=2;strokeColor=#000000;" parent="1" source="379" target="380" edge="1">
                    <mxGeometry width="50" height="50" relative="1" as="geometry">
                        <mxPoint x="-863.3370129870132" y="617.5999999999999" as="sourcePoint"/>
                        <mxPoint x="-857.9733766233767" y="535" as="targetPoint"/>
                    </mxGeometry>
                </mxCell>
                <mxCell id="373" value="" style="ellipse;whiteSpace=wrap;html=1;fontSize=28;fillColor=none;strokeWidth=2;strokeColor=#000000;" parent="1" vertex="1">
                    <mxGeometry x="-576.45" y="285" width="19.5" height="56.4" as="geometry"/>
                </mxCell>
                <mxCell id="374" value="" style="endArrow=none;html=1;exitX=1;exitY=0.7;exitDx=0;exitDy=0;exitPerimeter=0;movable=1;resizable=1;rotatable=1;deletable=1;editable=1;connectable=1;strokeWidth=2;strokeColor=#000000;" parent="1" source="379" edge="1">
                    <mxGeometry width="50" height="50" relative="1" as="geometry">
                        <mxPoint x="-724.45" y="307" as="sourcePoint"/>
                        <mxPoint x="-493.45" y="320" as="targetPoint"/>
                    </mxGeometry>
                </mxCell>
                <mxCell id="376" value="" style="endArrow=none;html=1;entryX=0.5;entryY=0.98;entryDx=0;entryDy=0;entryPerimeter=0;strokeWidth=2;strokeColor=#000000;" parent="1" source="400" target="390" edge="1">
                    <mxGeometry width="50" height="50" relative="1" as="geometry">
                        <mxPoint x="-698.1797297297301" y="615" as="sourcePoint"/>
                        <mxPoint x="-688.45" y="535" as="targetPoint"/>
                    </mxGeometry>
                </mxCell>
                <mxCell id="378" value="&lt;font style=&quot;font-size: 40px;&quot; color=&quot;#000000&quot;&gt;&lt;b style=&quot;font-size: 40px;&quot;&gt;B Building&lt;/b&gt;&lt;/font&gt;" style="text;html=1;strokeColor=none;fillColor=none;align=center;verticalAlign=middle;whiteSpace=wrap;rounded=0;strokeWidth=2;fontSize=40;" parent="1" vertex="1">
                    <mxGeometry x="-728.45" y="775" width="310" height="30" as="geometry"/>
                </mxCell>
                <mxCell id="379" value="" style="shape=mxgraph.cisco.switches.layer_3_switch;sketch=0;html=1;pointerEvents=1;dashed=0;fillColor=#036897;strokeColor=#000000;strokeWidth=2;verticalLabelPosition=bottom;verticalAlign=top;align=center;outlineConnect=0;points=[[0,0.5,0,0,0],[0,1,0,0,0],[0.08,0.05,0,0,0],[0.5,0,0,0,0],[0.5,1,0,0,0],[0.95,0.94,0,0,0],[1,0,0,0,0],[1,0.27,0,0,0],[1,0.5,0,0,0],[1,0.7,0,0,0]];" parent="1" vertex="1">
                    <mxGeometry x="-798.45" y="265" width="83" height="82" as="geometry"/>
                </mxCell>
                <mxCell id="380" value="" style="shape=mxgraph.cisco.switches.layer_3_switch;sketch=0;html=1;pointerEvents=1;dashed=0;fillColor=#036897;strokeColor=#000000;strokeWidth=2;verticalLabelPosition=bottom;verticalAlign=top;align=center;outlineConnect=0;" parent="1" vertex="1">
                    <mxGeometry x="-493.45" y="265" width="83" height="82" as="geometry"/>
                </mxCell>
                <mxCell id="381" value="" style="endArrow=none;html=1;exitX=0.5;exitY=1;exitDx=0;exitDy=0;exitPerimeter=0;entryX=0.5;entryY=0;entryDx=0;entryDy=0;entryPerimeter=0;strokeWidth=2;strokeColor=#000000;" parent="1" source="379" target="414" edge="1">
                    <mxGeometry width="50" height="50" relative="1" as="geometry">
                        <mxPoint x="-756.45" y="275" as="sourcePoint"/>
                        <mxPoint x="-699.45" y="-41" as="targetPoint"/>
                    </mxGeometry>
                </mxCell>
                <mxCell id="383" value="" style="endArrow=none;html=1;exitX=0;exitY=1;exitDx=0;exitDy=0;exitPerimeter=0;strokeWidth=2;strokeColor=#000000;" parent="1" source="380" target="390" edge="1">
                    <mxGeometry width="50" height="50" relative="1" as="geometry">
                        <mxPoint x="-727.6500000000001" y="335.15999999999985" as="sourcePoint"/>
                        <mxPoint x="-551.3445783132531" y="470" as="targetPoint"/>
                    </mxGeometry>
                </mxCell>
                <mxCell id="384" value="" style="endArrow=none;html=1;exitX=0.95;exitY=0.94;exitDx=0;exitDy=0;exitPerimeter=0;strokeWidth=2;strokeColor=#000000;" parent="1" source="380" target="391" edge="1">
                    <mxGeometry width="50" height="50" relative="1" as="geometry">
                        <mxPoint x="-498.45" y="339" as="sourcePoint"/>
                        <mxPoint x="-380.95" y="470" as="targetPoint"/>
                        <Array as="points"/>
                    </mxGeometry>
                </mxCell>
                <mxCell id="385" value="" style="shape=mxgraph.cisco.computers_and_peripherals.workstation;sketch=0;html=1;pointerEvents=1;dashed=0;fillColor=#036897;strokeColor=#000000;strokeWidth=2;verticalLabelPosition=bottom;verticalAlign=top;align=center;outlineConnect=0;" parent="1" vertex="1">
                    <mxGeometry x="-846.8500000000001" y="593.6" width="100" height="80" as="geometry"/>
                </mxCell>
                <mxCell id="387" value="" style="group;movable=1;resizable=1;rotatable=1;deletable=1;editable=1;connectable=1;strokeWidth=2;strokeColor=none;" parent="1" vertex="1" connectable="0">
                    <mxGeometry x="-608.45" y="465" width="269.4" height="65" as="geometry"/>
                </mxCell>
                <mxCell id="388" value="" style="ellipse;whiteSpace=wrap;html=1;fontSize=28;fillColor=none;strokeWidth=2;strokeColor=#000000;" parent="387" vertex="1">
                    <mxGeometry x="137.9" y="1.7999999999999545" width="19.5" height="56.4" as="geometry"/>
                </mxCell>
                <mxCell id="389" value="" style="ellipse;whiteSpace=wrap;html=1;fontSize=28;fillColor=none;strokeWidth=2;strokeColor=#000000;" parent="387" vertex="1">
                    <mxGeometry x="108.4" y="1.7999999999999545" width="19.5" height="56.4" as="geometry"/>
                </mxCell>
                <mxCell id="390" value="" style="shape=mxgraph.cisco.switches.workgroup_switch;sketch=0;html=1;pointerEvents=1;dashed=0;fillColor=#036897;strokeColor=#000000;strokeWidth=2;verticalLabelPosition=bottom;verticalAlign=top;align=center;outlineConnect=0;fontSize=16;fontColor=#000000;points=[[0,0.5,0,0,0],[0,0.98,0,0,0],[0.16,0.24,0,0,0],[0.5,0,0,0,0],[0.5,0.98,0,0,0],[0.75,0.86,0,0,0],[0.75,1,0,0,0],[0.76,0.53,0,0,0],[0.76,0.7,0,0,0],[0.87,0.74,0,0,0],[0.98,0.5,0,0,0],[1,0,0,0,0]];" parent="387" vertex="1">
                    <mxGeometry y="5" width="101" height="50" as="geometry"/>
                </mxCell>
                <mxCell id="391" value="" style="shape=mxgraph.cisco.switches.workgroup_switch;sketch=0;html=1;pointerEvents=1;dashed=0;fillColor=#036897;strokeColor=#000000;strokeWidth=2;verticalLabelPosition=bottom;verticalAlign=top;align=center;outlineConnect=0;fontSize=16;fontColor=#000000;points=[[0,0.5,0,0,0],[0,0.64,0,0,0],[0,0.8,0,0,0],[0,0.98,0,0,0],[0.16,0.24,0,0,0],[0.5,0,0,0,0],[0.5,0.98,0,0,0],[0.87,0.74,0,0,0],[0.98,0.5,0,0,0],[1,0,0,0,0]];movable=1;resizable=1;rotatable=1;deletable=1;editable=1;connectable=1;" parent="387" vertex="1">
                    <mxGeometry x="168.4" width="101" height="50" as="geometry"/>
                </mxCell>
                <mxCell id="392" value="" style="endArrow=none;html=1;exitX=0;exitY=0.5;exitDx=0;exitDy=0;exitPerimeter=0;entryX=1.01;entryY=0.4;entryDx=0;entryDy=0;entryPerimeter=0;movable=1;resizable=1;rotatable=1;deletable=1;editable=1;connectable=1;strokeColor=#000000;strokeWidth=2;" parent="387" source="391" target="390" edge="1">
                    <mxGeometry width="50" height="50" relative="1" as="geometry">
                        <mxPoint x="184.4" y="15" as="sourcePoint"/>
                        <mxPoint x="108.4" y="25" as="targetPoint"/>
                    </mxGeometry>
                </mxCell>
                <mxCell id="393" value="" style="endArrow=none;html=1;entryX=0.985;entryY=0.147;entryDx=0;entryDy=0;entryPerimeter=0;exitX=0.16;exitY=0.24;exitDx=0;exitDy=0;exitPerimeter=0;movable=1;resizable=1;rotatable=1;deletable=1;editable=1;connectable=1;strokeColor=#000000;strokeWidth=2;" parent="387" source="391" target="390" edge="1">
                    <mxGeometry width="50" height="50" relative="1" as="geometry">
                        <mxPoint x="168.4" y="25" as="sourcePoint"/>
                        <mxPoint x="128.4" y="-5" as="targetPoint"/>
                    </mxGeometry>
                </mxCell>
                <mxCell id="394" value="" style="endArrow=none;html=1;movable=1;resizable=1;rotatable=1;deletable=1;editable=1;connectable=1;strokeColor=#000000;strokeWidth=2;" parent="387" edge="1">
                    <mxGeometry width="50" height="50" relative="1" as="geometry">
                        <mxPoint x="175.4" y="50" as="sourcePoint"/>
                        <mxPoint x="78.4" y="50" as="targetPoint"/>
                    </mxGeometry>
                </mxCell>
                <mxCell id="395" value="" style="endArrow=none;html=1;movable=1;resizable=1;rotatable=1;deletable=1;editable=1;connectable=1;strokeWidth=2;strokeColor=#000000;" parent="387" edge="1">
                    <mxGeometry width="50" height="50" relative="1" as="geometry">
                        <mxPoint x="170" y="40" as="sourcePoint"/>
                        <mxPoint x="89" y="38" as="targetPoint"/>
                    </mxGeometry>
                </mxCell>
                <mxCell id="-Yv9RH5pwTCra0XLEg7_-620" value="&lt;div style=&quot;font-size: 11px;&quot;&gt;&lt;span style=&quot;font-size: 11px;&quot;&gt;&lt;b style=&quot;font-size: 11px;&quot;&gt;B-A2&lt;/b&gt;&lt;/span&gt;&lt;/div&gt;" style="text;html=1;strokeColor=none;fillColor=none;align=left;verticalAlign=middle;whiteSpace=wrap;rounded=0;fontColor=#FFFFFF;fontSize=11;" parent="387" vertex="1">
                    <mxGeometry x="28.450000000000045" y="15" width="30" height="50" as="geometry"/>
                </mxCell>
                <mxCell id="396" value="" style="endArrow=none;html=1;exitX=0.95;exitY=0.94;exitDx=0;exitDy=0;exitPerimeter=0;entryX=0.5;entryY=0;entryDx=0;entryDy=0;entryPerimeter=0;strokeWidth=2;strokeColor=#000000;" parent="1" source="379" target="391" edge="1">
                    <mxGeometry width="50" height="50" relative="1" as="geometry">
                        <mxPoint x="-727.6499999999999" y="335.1600000000001" as="sourcePoint"/>
                        <mxPoint x="-408.45" y="465" as="targetPoint"/>
                    </mxGeometry>
                </mxCell>
                <mxCell id="398" value="" style="endArrow=none;html=1;strokeWidth=2;strokeColor=#000000;" parent="1" source="380" target="414" edge="1">
                    <mxGeometry width="50" height="50" relative="1" as="geometry">
                        <mxPoint x="-498.45" y="335.0000000000002" as="sourcePoint"/>
                        <mxPoint x="-668.45" y="484.9999999999998" as="targetPoint"/>
                    </mxGeometry>
                </mxCell>
                <mxCell id="399" value="" style="endArrow=none;html=1;exitX=0.5;exitY=1;exitDx=0;exitDy=0;exitPerimeter=0;strokeWidth=2;strokeColor=#000000;entryX=0.5;entryY=0;entryDx=0;entryDy=0;entryPerimeter=0;" parent="1" source="379" target="390" edge="1">
                    <mxGeometry width="50" height="50" relative="1" as="geometry">
                        <mxPoint x="-498.45" y="307.0000000000002" as="sourcePoint"/>
                        <mxPoint x="-408.45" y="465" as="targetPoint"/>
                    </mxGeometry>
                </mxCell>
                <mxCell id="400" value="" style="aspect=fixed;perimeter=ellipsePerimeter;html=1;align=center;shadow=0;dashed=0;spacingTop=3;image;image=img/lib/active_directory/phone.svg;fillColor=#FFFF66;strokeWidth=2;strokeColor=#000000;" parent="1" vertex="1">
                    <mxGeometry x="-600.48" y="595" width="100" height="80" as="geometry"/>
                </mxCell>
                <mxCell id="401" value="&lt;font color=&quot;#000000&quot; style=&quot;font-size: 20px;&quot;&gt;&lt;b style=&quot;font-size: 20px;&quot;&gt;7 Classroms&lt;/b&gt;&lt;/font&gt;" style="text;html=1;strokeColor=none;fillColor=none;align=center;verticalAlign=middle;whiteSpace=wrap;rounded=0;strokeWidth=2;fontSize=20;" parent="1" vertex="1">
                    <mxGeometry x="-876.8500000000001" y="678.6" width="130" height="30" as="geometry"/>
                </mxCell>
                <mxCell id="403" value="" style="fontColor=#0066CC;verticalAlign=top;verticalLabelPosition=bottom;labelPosition=center;align=center;html=1;outlineConnect=0;fillColor=#CCCCCC;strokeColor=#000000;gradientColor=none;gradientDirection=north;strokeWidth=2;shape=mxgraph.networks.security_camera;labelBackgroundColor=#000000;" parent="1" vertex="1">
                    <mxGeometry x="-254.84999999999997" y="350" width="100" height="80" as="geometry"/>
                </mxCell>
                <mxCell id="404" value="" style="image;html=1;image=img/lib/clip_art/computers/Printer_Commercial_128x128.png;labelBackgroundColor=#000000;fontColor=#000000;fillColor=#FFFF66;strokeWidth=2;strokeColor=#000000;" parent="1" vertex="1">
                    <mxGeometry x="-429.45" y="598.6" width="100" height="80" as="geometry"/>
                </mxCell>
                <mxCell id="405" value="&lt;font color=&quot;#000000&quot; style=&quot;font-size: 20px;&quot;&gt;&lt;b style=&quot;font-size: 20px;&quot;&gt;3 Printers&lt;br style=&quot;font-size: 20px;&quot;&gt;&lt;br style=&quot;font-size: 20px;&quot;&gt;&lt;/b&gt;&lt;/font&gt;" style="text;html=1;strokeColor=none;fillColor=none;align=center;verticalAlign=middle;whiteSpace=wrap;rounded=0;strokeWidth=2;fontSize=20;" parent="1" vertex="1">
                    <mxGeometry x="-441.05" y="689.5999999999999" width="102" height="30" as="geometry"/>
                </mxCell>
                <mxCell id="406" value="" style="points=[[0.03,0.36,0],[0.18,0,0],[0.5,0.34,0],[0.82,0,0],[0.97,0.36,0],[1,0.67,0],[0.975,0.975,0],[0.5,1,0],[0.025,0.975,0],[0,0.67,0]];verticalLabelPosition=bottom;sketch=0;html=1;verticalAlign=top;aspect=fixed;align=center;pointerEvents=1;shape=mxgraph.cisco19.wireless_access_point;fillColor=#005073;strokeColor=#000000;strokeWidth=2;" parent="1" vertex="1">
                    <mxGeometry x="-248.45" y="609.6" width="100" height="80" as="geometry"/>
                </mxCell>
                <mxCell id="411" value="" style="endArrow=none;html=1;fontColor=#000000;strokeWidth=2;strokeColor=#000000;" parent="1" source="385" target="414" edge="1">
                    <mxGeometry width="50" height="50" relative="1" as="geometry">
                        <mxPoint x="-918.45" y="615" as="sourcePoint"/>
                        <mxPoint x="-868.45" y="565" as="targetPoint"/>
                    </mxGeometry>
                </mxCell>
                <mxCell id="413" value="" style="endArrow=none;html=1;exitX=0.5;exitY=0;exitDx=0;exitDy=0;strokeWidth=2;strokeColor=#000000;" parent="1" source="404" target="391" edge="1">
                    <mxGeometry width="50" height="50" relative="1" as="geometry">
                        <mxPoint x="-542.272981350581" y="615.0336441569893" as="sourcePoint"/>
                        <mxPoint x="-388.45" y="515" as="targetPoint"/>
                    </mxGeometry>
                </mxCell>
                <mxCell id="414" value="" style="shape=mxgraph.cisco.switches.workgroup_switch;sketch=0;html=1;pointerEvents=1;dashed=0;fillColor=#036897;strokeColor=#000000;strokeWidth=2;verticalLabelPosition=bottom;verticalAlign=top;align=center;outlineConnect=0;fontSize=16;fontColor=#000000;points=[[0,0.5,0,0,0],[0,0.98,0,0,0],[0.16,0.24,0,0,0],[0.5,0,0,0,0],[0.5,0.98,0,0,0],[0.75,0.86,0,0,0],[0.75,1,0,0,0],[0.76,0.53,0,0,0],[0.76,0.7,0,0,0],[0.87,0.74,0,0,0],[0.98,0.5,0,0,0],[1,0,0,0,0]];" parent="1" vertex="1">
                    <mxGeometry x="-847.8500000000001" y="474.20000000000005" width="101" height="50" as="geometry"/>
                </mxCell>
                <mxCell id="415" value="&lt;font color=&quot;#000000&quot; style=&quot;font-size: 20px;&quot;&gt;&lt;b style=&quot;font-size: 20px;&quot;&gt;Security Cameras&lt;br style=&quot;font-size: 20px;&quot;&gt;&lt;/b&gt;&lt;/font&gt;" style="text;html=1;strokeColor=none;fillColor=none;align=center;verticalAlign=middle;whiteSpace=wrap;rounded=0;strokeWidth=2;fontSize=20;" parent="1" vertex="1">
                    <mxGeometry x="-274.84999999999997" y="445" width="120" height="30" as="geometry"/>
                </mxCell>
                <mxCell id="416" value="&lt;font color=&quot;#000000&quot; style=&quot;font-size: 20px;&quot;&gt;&lt;b style=&quot;font-size: 20px;&quot;&gt;Alarm Systems&lt;br style=&quot;font-size: 20px;&quot;&gt;&lt;/b&gt;&lt;/font&gt;" style="text;html=1;strokeColor=none;fillColor=none;align=center;verticalAlign=middle;whiteSpace=wrap;rounded=0;strokeWidth=2;fontSize=20;" parent="1" vertex="1">
                    <mxGeometry x="-294.34999999999997" y="563.6" width="170" height="30" as="geometry"/>
                </mxCell>
                <mxCell id="417" value="&lt;font color=&quot;#000000&quot; style=&quot;font-size: 20px;&quot;&gt;&lt;b style=&quot;font-size: 20px;&quot;&gt;Wireless Access Points&lt;br style=&quot;font-size: 20px;&quot;&gt;&lt;/b&gt;&lt;/font&gt;" style="text;html=1;strokeColor=none;fillColor=none;align=center;verticalAlign=middle;whiteSpace=wrap;rounded=0;strokeWidth=2;fontSize=20;" parent="1" vertex="1">
                    <mxGeometry x="-305.34999999999997" y="698.5999999999999" width="201" height="30" as="geometry"/>
                </mxCell>
                <mxCell id="419" value="&lt;font size=&quot;1&quot; style=&quot;&quot;&gt;&lt;b style=&quot;font-size: 35px;&quot;&gt;Core Layer Devices -&lt;br&gt;Located at B Building&lt;br&gt;&lt;/b&gt;&lt;/font&gt;" style="text;html=1;strokeColor=none;fillColor=none;align=center;verticalAlign=middle;whiteSpace=wrap;rounded=0;fontColor=#000000;" parent="1" vertex="1">
                    <mxGeometry x="1023.6" y="-497.75" width="370" height="90" as="geometry"/>
                </mxCell>
                <mxCell id="424" value="" style="rounded=1;whiteSpace=wrap;html=1;fontSize=28;fillColor=#D5E8D4;strokeColor=#416933;fontColor=#ffffff;strokeWidth=3;" parent="1" vertex="1">
                    <mxGeometry x="-68.45" y="245" width="858.45" height="580" as="geometry"/>
                </mxCell>
                <mxCell id="425" value="" style="shadow=0;dashed=0;html=1;strokeColor=#000000;fillColor=#4495D1;labelPosition=center;verticalLabelPosition=bottom;verticalAlign=top;align=center;outlineConnect=0;shape=mxgraph.veeam.2d.alarm;strokeWidth=2;" parent="1" vertex="1">
                    <mxGeometry x="645.15" y="490" width="100" height="80" as="geometry"/>
                </mxCell>
                <mxCell id="426" value="" style="endArrow=none;html=1;entryX=0;entryY=1;entryDx=0;entryDy=0;entryPerimeter=0;strokeWidth=2;strokeColor=#000000;" parent="1" source="446" target="456" edge="1">
                    <mxGeometry width="50" height="50" relative="1" as="geometry">
                        <mxPoint x="561.55" y="490" as="sourcePoint"/>
                        <mxPoint x="621.55" y="390" as="targetPoint"/>
                    </mxGeometry>
                </mxCell>
                <mxCell id="427" value="" style="endArrow=none;html=1;entryX=-0.022;entryY=0.56;entryDx=0;entryDy=0;entryPerimeter=0;exitX=0.98;exitY=0.5;exitDx=0;exitDy=0;exitPerimeter=0;strokeWidth=2;strokeColor=#000000;" parent="1" source="446" target="425" edge="1">
                    <mxGeometry width="50" height="50" relative="1" as="geometry">
                        <mxPoint x="551.55" y="500" as="sourcePoint"/>
                        <mxPoint x="621.55" y="530" as="targetPoint"/>
                    </mxGeometry>
                </mxCell>
                <mxCell id="428" value="" style="endArrow=none;html=1;entryX=0;entryY=0.67;entryDx=0;entryDy=0;entryPerimeter=0;strokeWidth=2;strokeColor=#000000;" parent="1" source="446" target="459" edge="1">
                    <mxGeometry width="50" height="50" relative="1" as="geometry">
                        <mxPoint x="541.55" y="510" as="sourcePoint"/>
                        <mxPoint x="621.55" y="570" as="targetPoint"/>
                    </mxGeometry>
                </mxCell>
                <mxCell id="429" value="&lt;font color=&quot;#000000&quot; style=&quot;font-size: 20px;&quot;&gt;&lt;b style=&quot;font-size: 20px;&quot;&gt;7 Phones&lt;br style=&quot;font-size: 20px;&quot;&gt;&lt;/b&gt;&lt;/font&gt;" style="text;html=1;strokeColor=none;fillColor=none;align=center;verticalAlign=middle;whiteSpace=wrap;rounded=0;strokeWidth=2;fontSize=20;" parent="1" vertex="1">
                    <mxGeometry x="291.55" y="678.6" width="102.03" height="30" as="geometry"/>
                </mxCell>
                <mxCell id="430" value="" style="ellipse;whiteSpace=wrap;html=1;fontSize=28;fillColor=none;strokeWidth=2;strokeColor=#000000;" parent="1" vertex="1">
                    <mxGeometry x="261.55" y="292" width="19.5" height="56.4" as="geometry"/>
                </mxCell>
                <mxCell id="431" value="" style="endArrow=none;html=1;entryX=0;entryY=0.5;entryDx=0;entryDy=0;entryPerimeter=0;exitX=1;exitY=0.5;exitDx=0;exitDy=0;exitPerimeter=0;movable=1;resizable=1;rotatable=1;deletable=1;editable=1;connectable=1;strokeWidth=2;strokeColor=#000000;" parent="1" source="436" target="437" edge="1">
                    <mxGeometry width="50" height="50" relative="1" as="geometry">
                        <mxPoint x="36.662987012986875" y="622.5999999999999" as="sourcePoint"/>
                        <mxPoint x="42.02662337662336" y="540" as="targetPoint"/>
                    </mxGeometry>
                </mxCell>
                <mxCell id="432" value="" style="ellipse;whiteSpace=wrap;html=1;fontSize=28;fillColor=none;strokeWidth=2;strokeColor=#000000;" parent="1" vertex="1">
                    <mxGeometry x="323.55" y="290" width="19.5" height="56.4" as="geometry"/>
                </mxCell>
                <mxCell id="433" value="" style="endArrow=none;html=1;exitX=1;exitY=0.7;exitDx=0;exitDy=0;exitPerimeter=0;movable=1;resizable=1;rotatable=1;deletable=1;editable=1;connectable=1;strokeWidth=2;strokeColor=#000000;" parent="1" source="436" edge="1">
                    <mxGeometry width="50" height="50" relative="1" as="geometry">
                        <mxPoint x="175.55" y="312" as="sourcePoint"/>
                        <mxPoint x="406.55" y="325" as="targetPoint"/>
                    </mxGeometry>
                </mxCell>
                <mxCell id="434" value="" style="endArrow=none;html=1;entryX=0.5;entryY=0.98;entryDx=0;entryDy=0;entryPerimeter=0;strokeWidth=2;strokeColor=#000000;" parent="1" source="454" target="445" edge="1">
                    <mxGeometry width="50" height="50" relative="1" as="geometry">
                        <mxPoint x="201.82027027027" y="620" as="sourcePoint"/>
                        <mxPoint x="211.55" y="540" as="targetPoint"/>
                    </mxGeometry>
                </mxCell>
                <mxCell id="435" value="&lt;font style=&quot;font-size: 40px;&quot; color=&quot;#000000&quot;&gt;&lt;b style=&quot;font-size: 40px;&quot;&gt;G Building&lt;/b&gt;&lt;/font&gt;" style="text;html=1;strokeColor=none;fillColor=none;align=center;verticalAlign=middle;whiteSpace=wrap;rounded=0;strokeWidth=2;fontSize=40;" parent="1" vertex="1">
                    <mxGeometry x="194.51999999999998" y="765" width="310" height="30" as="geometry"/>
                </mxCell>
                <mxCell id="436" value="" style="shape=mxgraph.cisco.switches.layer_3_switch;sketch=0;html=1;pointerEvents=1;dashed=0;fillColor=#036897;strokeColor=#000000;strokeWidth=2;verticalLabelPosition=bottom;verticalAlign=top;align=center;outlineConnect=0;points=[[0,0.5,0,0,0],[0,1,0,0,0],[0.08,0.05,0,0,0],[0.5,0,0,0,0],[0.5,1,0,0,0],[0.95,0.94,0,0,0],[1,0,0,0,0],[1,0.27,0,0,0],[1,0.5,0,0,0],[1,0.7,0,0,0]];" parent="1" vertex="1">
                    <mxGeometry x="101.55" y="270" width="83" height="82" as="geometry"/>
                </mxCell>
                <mxCell id="437" value="" style="shape=mxgraph.cisco.switches.layer_3_switch;sketch=0;html=1;pointerEvents=1;dashed=0;fillColor=#036897;strokeColor=#000000;strokeWidth=2;verticalLabelPosition=bottom;verticalAlign=top;align=center;outlineConnect=0;" parent="1" vertex="1">
                    <mxGeometry x="406.55" y="270" width="83" height="82" as="geometry"/>
                </mxCell>
                <mxCell id="438" value="" style="endArrow=none;html=1;exitX=0.5;exitY=1;exitDx=0;exitDy=0;exitPerimeter=0;entryX=0.5;entryY=0;entryDx=0;entryDy=0;entryPerimeter=0;strokeWidth=2;strokeColor=#000000;" parent="1" source="436" target="462" edge="1">
                    <mxGeometry width="50" height="50" relative="1" as="geometry">
                        <mxPoint x="143.55" y="280" as="sourcePoint"/>
                        <mxPoint x="200.55" y="-36" as="targetPoint"/>
                    </mxGeometry>
                </mxCell>
                <mxCell id="439" value="" style="endArrow=none;html=1;exitX=0;exitY=1;exitDx=0;exitDy=0;exitPerimeter=0;strokeWidth=2;strokeColor=#000000;" parent="1" source="437" target="445" edge="1">
                    <mxGeometry width="50" height="50" relative="1" as="geometry">
                        <mxPoint x="172.34999999999997" y="340.15999999999985" as="sourcePoint"/>
                        <mxPoint x="348.65542168674693" y="475" as="targetPoint"/>
                    </mxGeometry>
                </mxCell>
                <mxCell id="440" value="" style="endArrow=none;html=1;exitX=0.95;exitY=0.94;exitDx=0;exitDy=0;exitPerimeter=0;strokeWidth=2;strokeColor=#000000;" parent="1" source="437" target="446" edge="1">
                    <mxGeometry width="50" height="50" relative="1" as="geometry">
                        <mxPoint x="401.55" y="344" as="sourcePoint"/>
                        <mxPoint x="519.05" y="475" as="targetPoint"/>
                        <Array as="points"/>
                    </mxGeometry>
                </mxCell>
                <mxCell id="441" value="" style="shape=mxgraph.cisco.computers_and_peripherals.workstation;sketch=0;html=1;pointerEvents=1;dashed=0;fillColor=#036897;strokeColor=#000000;strokeWidth=2;verticalLabelPosition=bottom;verticalAlign=top;align=center;outlineConnect=0;" parent="1" vertex="1">
                    <mxGeometry x="53.149999999999906" y="598.6" width="100" height="80" as="geometry"/>
                </mxCell>
                <mxCell id="442" value="" style="group;movable=1;resizable=1;rotatable=1;deletable=1;editable=1;connectable=1;strokeWidth=2;strokeColor=none;" parent="1" vertex="1" connectable="0">
                    <mxGeometry x="291.55" y="470" width="269.4" height="58.19999999999993" as="geometry"/>
                </mxCell>
                <mxCell id="443" value="" style="ellipse;whiteSpace=wrap;html=1;fontSize=28;fillColor=none;strokeWidth=2;strokeColor=#000000;" parent="442" vertex="1">
                    <mxGeometry x="137.9" y="1.7999999999999545" width="19.5" height="56.4" as="geometry"/>
                </mxCell>
                <mxCell id="444" value="" style="ellipse;whiteSpace=wrap;html=1;fontSize=28;fillColor=none;strokeWidth=2;strokeColor=#000000;" parent="442" vertex="1">
                    <mxGeometry x="108.4" y="1.7999999999999545" width="19.5" height="56.4" as="geometry"/>
                </mxCell>
                <mxCell id="445" value="" style="shape=mxgraph.cisco.switches.workgroup_switch;sketch=0;html=1;pointerEvents=1;dashed=0;fillColor=#036897;strokeColor=#000000;strokeWidth=2;verticalLabelPosition=bottom;verticalAlign=top;align=center;outlineConnect=0;fontSize=16;fontColor=#000000;points=[[0,0.5,0,0,0],[0,0.98,0,0,0],[0.16,0.24,0,0,0],[0.5,0,0,0,0],[0.5,0.98,0,0,0],[0.75,0.86,0,0,0],[0.75,1,0,0,0],[0.76,0.53,0,0,0],[0.76,0.7,0,0,0],[0.87,0.74,0,0,0],[0.98,0.5,0,0,0],[1,0,0,0,0]];" parent="442" vertex="1">
                    <mxGeometry y="5" width="101" height="50" as="geometry"/>
                </mxCell>
                <mxCell id="446" value="" style="shape=mxgraph.cisco.switches.workgroup_switch;sketch=0;html=1;pointerEvents=1;dashed=0;fillColor=#036897;strokeColor=#000000;strokeWidth=2;verticalLabelPosition=bottom;verticalAlign=top;align=center;outlineConnect=0;fontSize=16;fontColor=#000000;points=[[0,0.5,0,0,0],[0,0.64,0,0,0],[0,0.8,0,0,0],[0,0.98,0,0,0],[0.16,0.24,0,0,0],[0.5,0,0,0,0],[0.5,0.98,0,0,0],[0.87,0.74,0,0,0],[0.98,0.5,0,0,0],[1,0,0,0,0]];movable=1;resizable=1;rotatable=1;deletable=1;editable=1;connectable=1;" parent="442" vertex="1">
                    <mxGeometry x="168.4" width="101" height="50" as="geometry"/>
                </mxCell>
                <mxCell id="447" value="" style="endArrow=none;html=1;exitX=0;exitY=0.5;exitDx=0;exitDy=0;exitPerimeter=0;entryX=1.01;entryY=0.4;entryDx=0;entryDy=0;entryPerimeter=0;movable=1;resizable=1;rotatable=1;deletable=1;editable=1;connectable=1;strokeColor=#000000;strokeWidth=2;" parent="442" source="446" target="445" edge="1">
                    <mxGeometry width="50" height="50" relative="1" as="geometry">
                        <mxPoint x="184.4" y="15" as="sourcePoint"/>
                        <mxPoint x="108.4" y="25" as="targetPoint"/>
                    </mxGeometry>
                </mxCell>
                <mxCell id="448" value="" style="endArrow=none;html=1;entryX=0.985;entryY=0.147;entryDx=0;entryDy=0;entryPerimeter=0;exitX=0.16;exitY=0.24;exitDx=0;exitDy=0;exitPerimeter=0;movable=1;resizable=1;rotatable=1;deletable=1;editable=1;connectable=1;strokeColor=#000000;strokeWidth=2;" parent="442" source="446" target="445" edge="1">
                    <mxGeometry width="50" height="50" relative="1" as="geometry">
                        <mxPoint x="168.4" y="25" as="sourcePoint"/>
                        <mxPoint x="128.4" y="-5" as="targetPoint"/>
                    </mxGeometry>
                </mxCell>
                <mxCell id="449" value="" style="endArrow=none;html=1;movable=1;resizable=1;rotatable=1;deletable=1;editable=1;connectable=1;strokeColor=#000000;strokeWidth=2;" parent="442" edge="1">
                    <mxGeometry width="50" height="50" relative="1" as="geometry">
                        <mxPoint x="175.4" y="50" as="sourcePoint"/>
                        <mxPoint x="78.4" y="50" as="targetPoint"/>
                    </mxGeometry>
                </mxCell>
                <mxCell id="450" value="" style="endArrow=none;html=1;movable=1;resizable=1;rotatable=1;deletable=1;editable=1;connectable=1;strokeWidth=2;strokeColor=#000000;" parent="442" edge="1">
                    <mxGeometry width="50" height="50" relative="1" as="geometry">
                        <mxPoint x="170" y="40" as="sourcePoint"/>
                        <mxPoint x="89" y="38" as="targetPoint"/>
                    </mxGeometry>
                </mxCell>
                <mxCell id="451" value="" style="endArrow=none;html=1;exitX=0.95;exitY=0.94;exitDx=0;exitDy=0;exitPerimeter=0;entryX=0.5;entryY=0;entryDx=0;entryDy=0;entryPerimeter=0;strokeWidth=2;strokeColor=#000000;" parent="1" source="436" target="446" edge="1">
                    <mxGeometry width="50" height="50" relative="1" as="geometry">
                        <mxPoint x="172.3500000000002" y="340.1600000000001" as="sourcePoint"/>
                        <mxPoint x="491.55" y="470" as="targetPoint"/>
                    </mxGeometry>
                </mxCell>
                <mxCell id="452" value="" style="endArrow=none;html=1;strokeWidth=2;strokeColor=#000000;" parent="1" source="437" target="462" edge="1">
                    <mxGeometry width="50" height="50" relative="1" as="geometry">
                        <mxPoint x="401.55" y="340.0000000000002" as="sourcePoint"/>
                        <mxPoint x="231.55" y="489.9999999999998" as="targetPoint"/>
                    </mxGeometry>
                </mxCell>
                <mxCell id="453" value="" style="endArrow=none;html=1;exitX=0.5;exitY=1;exitDx=0;exitDy=0;exitPerimeter=0;strokeWidth=2;strokeColor=#000000;entryX=0.5;entryY=0;entryDx=0;entryDy=0;entryPerimeter=0;" parent="1" source="436" target="445" edge="1">
                    <mxGeometry width="50" height="50" relative="1" as="geometry">
                        <mxPoint x="401.55" y="312.0000000000002" as="sourcePoint"/>
                        <mxPoint x="491.55" y="470" as="targetPoint"/>
                    </mxGeometry>
                </mxCell>
                <mxCell id="454" value="" style="aspect=fixed;perimeter=ellipsePerimeter;html=1;align=center;shadow=0;dashed=0;spacingTop=3;image;image=img/lib/active_directory/phone.svg;fillColor=#FFFF66;strokeWidth=2;strokeColor=#000000;" parent="1" vertex="1">
                    <mxGeometry x="299.52000000000004" y="600" width="100" height="80" as="geometry"/>
                </mxCell>
                <mxCell id="455" value="&lt;font color=&quot;#000000&quot; style=&quot;font-size: 20px;&quot;&gt;&lt;b style=&quot;font-size: 20px;&quot;&gt;7 Classroms&lt;/b&gt;&lt;/font&gt;" style="text;html=1;strokeColor=none;fillColor=none;align=center;verticalAlign=middle;whiteSpace=wrap;rounded=0;strokeWidth=2;fontSize=20;" parent="1" vertex="1">
                    <mxGeometry x="23.149999999999906" y="683.6" width="130" height="30" as="geometry"/>
                </mxCell>
                <mxCell id="456" value="" style="fontColor=#0066CC;verticalAlign=top;verticalLabelPosition=bottom;labelPosition=center;align=center;html=1;outlineConnect=0;fillColor=#CCCCCC;strokeColor=#000000;gradientColor=none;gradientDirection=north;strokeWidth=2;shape=mxgraph.networks.security_camera;labelBackgroundColor=#000000;" parent="1" vertex="1">
                    <mxGeometry x="645.15" y="355" width="100" height="80" as="geometry"/>
                </mxCell>
                <mxCell id="457" value="" style="image;html=1;image=img/lib/clip_art/computers/Printer_Commercial_128x128.png;labelBackgroundColor=#000000;fontColor=#000000;fillColor=#FFFF66;strokeWidth=2;strokeColor=#000000;" parent="1" vertex="1">
                    <mxGeometry x="470.55" y="603.6" width="100" height="80" as="geometry"/>
                </mxCell>
                <mxCell id="458" value="&lt;font color=&quot;#000000&quot; style=&quot;font-size: 20px;&quot;&gt;&lt;b style=&quot;font-size: 20px;&quot;&gt;3 Printers&lt;br style=&quot;font-size: 20px;&quot;&gt;&lt;br style=&quot;font-size: 20px;&quot;&gt;&lt;/b&gt;&lt;/font&gt;" style="text;html=1;strokeColor=none;fillColor=none;align=center;verticalAlign=middle;whiteSpace=wrap;rounded=0;strokeWidth=2;fontSize=20;" parent="1" vertex="1">
                    <mxGeometry x="458.95" y="694.5999999999999" width="102" height="30" as="geometry"/>
                </mxCell>
                <mxCell id="459" value="" style="points=[[0.03,0.36,0],[0.18,0,0],[0.5,0.34,0],[0.82,0,0],[0.97,0.36,0],[1,0.67,0],[0.975,0.975,0],[0.5,1,0],[0.025,0.975,0],[0,0.67,0]];verticalLabelPosition=bottom;sketch=0;html=1;verticalAlign=top;aspect=fixed;align=center;pointerEvents=1;shape=mxgraph.cisco19.wireless_access_point;fillColor=#005073;strokeColor=#000000;strokeWidth=2;" parent="1" vertex="1">
                    <mxGeometry x="651.55" y="614.6" width="100" height="80" as="geometry"/>
                </mxCell>
                <mxCell id="460" value="" style="endArrow=none;html=1;fontColor=#000000;strokeWidth=2;strokeColor=#000000;" parent="1" source="441" target="462" edge="1">
                    <mxGeometry width="50" height="50" relative="1" as="geometry">
                        <mxPoint x="-18.450000000000003" y="620" as="sourcePoint"/>
                        <mxPoint x="31.549999999999997" y="570" as="targetPoint"/>
                    </mxGeometry>
                </mxCell>
                <mxCell id="461" value="" style="endArrow=none;html=1;exitX=0.5;exitY=0;exitDx=0;exitDy=0;strokeWidth=2;strokeColor=#000000;" parent="1" source="457" target="446" edge="1">
                    <mxGeometry width="50" height="50" relative="1" as="geometry">
                        <mxPoint x="357.7270186494191" y="620.0336441569893" as="sourcePoint"/>
                        <mxPoint x="511.55" y="520" as="targetPoint"/>
                    </mxGeometry>
                </mxCell>
                <mxCell id="462" value="" style="shape=mxgraph.cisco.switches.workgroup_switch;sketch=0;html=1;pointerEvents=1;dashed=0;fillColor=#036897;strokeColor=#000000;strokeWidth=2;verticalLabelPosition=bottom;verticalAlign=top;align=center;outlineConnect=0;fontSize=16;fontColor=#000000;points=[[0,0.5,0,0,0],[0,0.98,0,0,0],[0.16,0.24,0,0,0],[0.5,0,0,0,0],[0.5,0.98,0,0,0],[0.75,0.86,0,0,0],[0.75,1,0,0,0],[0.76,0.53,0,0,0],[0.76,0.7,0,0,0],[0.87,0.74,0,0,0],[0.98,0.5,0,0,0],[1,0,0,0,0]];" parent="1" vertex="1">
                    <mxGeometry x="52.149999999999906" y="479.20000000000005" width="101" height="50" as="geometry"/>
                </mxCell>
                <mxCell id="463" value="&lt;font color=&quot;#000000&quot; style=&quot;font-size: 20px;&quot;&gt;&lt;b style=&quot;font-size: 20px;&quot;&gt;Security Cameras&lt;br style=&quot;font-size: 20px;&quot;&gt;&lt;/b&gt;&lt;/font&gt;" style="text;html=1;strokeColor=none;fillColor=none;align=center;verticalAlign=middle;whiteSpace=wrap;rounded=0;strokeWidth=2;fontSize=20;" parent="1" vertex="1">
                    <mxGeometry x="625.15" y="450" width="120" height="30" as="geometry"/>
                </mxCell>
                <mxCell id="464" value="&lt;font color=&quot;#000000&quot; style=&quot;font-size: 20px;&quot;&gt;&lt;b style=&quot;font-size: 20px;&quot;&gt;Alarm Systems&lt;br style=&quot;font-size: 20px;&quot;&gt;&lt;/b&gt;&lt;/font&gt;" style="text;html=1;strokeColor=none;fillColor=none;align=center;verticalAlign=middle;whiteSpace=wrap;rounded=0;strokeWidth=2;fontSize=20;" parent="1" vertex="1">
                    <mxGeometry x="605.65" y="568.6" width="170" height="30" as="geometry"/>
                </mxCell>
                <mxCell id="465" value="&lt;font color=&quot;#000000&quot; style=&quot;font-size: 20px;&quot;&gt;&lt;b style=&quot;font-size: 20px;&quot;&gt;Wireless Access Points&lt;br style=&quot;font-size: 20px;&quot;&gt;&lt;/b&gt;&lt;/font&gt;" style="text;html=1;strokeColor=none;fillColor=none;align=center;verticalAlign=middle;whiteSpace=wrap;rounded=0;strokeWidth=2;fontSize=20;" parent="1" vertex="1">
                    <mxGeometry x="594.65" y="703.5999999999999" width="201" height="30" as="geometry"/>
                </mxCell>
                <mxCell id="466" value="" style="rounded=1;whiteSpace=wrap;html=1;fontSize=28;fillColor=#F8CECC;strokeColor=#572727;fontColor=#ffffff;strokeWidth=3;" parent="1" vertex="1">
                    <mxGeometry x="831.55" y="245" width="850" height="580" as="geometry"/>
                </mxCell>
                <mxCell id="467" value="" style="shadow=0;dashed=0;html=1;strokeColor=#000000;fillColor=#4495D1;labelPosition=center;verticalLabelPosition=bottom;verticalAlign=top;align=center;outlineConnect=0;shape=mxgraph.veeam.2d.alarm;strokeWidth=2;" parent="1" vertex="1">
                    <mxGeometry x="1545.1499999999999" y="490" width="100" height="80" as="geometry"/>
                </mxCell>
                <mxCell id="468" value="" style="endArrow=none;html=1;entryX=0;entryY=1;entryDx=0;entryDy=0;entryPerimeter=0;strokeWidth=2;strokeColor=#000000;" parent="1" source="488" target="498" edge="1">
                    <mxGeometry width="50" height="50" relative="1" as="geometry">
                        <mxPoint x="1461.55" y="490" as="sourcePoint"/>
                        <mxPoint x="1521.55" y="390" as="targetPoint"/>
                    </mxGeometry>
                </mxCell>
                <mxCell id="469" value="" style="endArrow=none;html=1;entryX=-0.022;entryY=0.56;entryDx=0;entryDy=0;entryPerimeter=0;exitX=0.98;exitY=0.5;exitDx=0;exitDy=0;exitPerimeter=0;strokeWidth=2;strokeColor=#000000;" parent="1" source="488" target="467" edge="1">
                    <mxGeometry width="50" height="50" relative="1" as="geometry">
                        <mxPoint x="1451.55" y="500" as="sourcePoint"/>
                        <mxPoint x="1521.55" y="530" as="targetPoint"/>
                    </mxGeometry>
                </mxCell>
                <mxCell id="470" value="" style="endArrow=none;html=1;entryX=0;entryY=0.67;entryDx=0;entryDy=0;entryPerimeter=0;strokeWidth=2;strokeColor=#000000;" parent="1" source="488" target="501" edge="1">
                    <mxGeometry width="50" height="50" relative="1" as="geometry">
                        <mxPoint x="1441.55" y="510" as="sourcePoint"/>
                        <mxPoint x="1521.55" y="570" as="targetPoint"/>
                    </mxGeometry>
                </mxCell>
                <mxCell id="471" value="&lt;font color=&quot;#000000&quot; style=&quot;font-size: 20px;&quot;&gt;&lt;b style=&quot;font-size: 20px;&quot;&gt;7 Phones&lt;br style=&quot;font-size: 20px;&quot;&gt;&lt;/b&gt;&lt;/font&gt;" style="text;html=1;strokeColor=none;fillColor=none;align=center;verticalAlign=middle;whiteSpace=wrap;rounded=0;strokeWidth=2;fontSize=20;" parent="1" vertex="1">
                    <mxGeometry x="1191.55" y="678.6" width="102.03" height="30" as="geometry"/>
                </mxCell>
                <mxCell id="472" value="" style="ellipse;whiteSpace=wrap;html=1;fontSize=28;fillColor=none;strokeWidth=2;strokeColor=#000000;" parent="1" vertex="1">
                    <mxGeometry x="1161.55" y="292" width="19.5" height="56.4" as="geometry"/>
                </mxCell>
                <mxCell id="473" value="" style="endArrow=none;html=1;entryX=0;entryY=0.5;entryDx=0;entryDy=0;entryPerimeter=0;exitX=1;exitY=0.5;exitDx=0;exitDy=0;exitPerimeter=0;movable=1;resizable=1;rotatable=1;deletable=1;editable=1;connectable=1;strokeWidth=2;strokeColor=#000000;" parent="1" source="478" target="479" edge="1">
                    <mxGeometry width="50" height="50" relative="1" as="geometry">
                        <mxPoint x="936.6629870129868" y="622.5999999999999" as="sourcePoint"/>
                        <mxPoint x="942.0266233766233" y="540" as="targetPoint"/>
                    </mxGeometry>
                </mxCell>
                <mxCell id="474" value="" style="ellipse;whiteSpace=wrap;html=1;fontSize=28;fillColor=none;strokeWidth=2;strokeColor=#000000;" parent="1" vertex="1">
                    <mxGeometry x="1223.55" y="290" width="19.5" height="56.4" as="geometry"/>
                </mxCell>
                <mxCell id="475" value="" style="endArrow=none;html=1;exitX=1;exitY=0.7;exitDx=0;exitDy=0;exitPerimeter=0;movable=1;resizable=1;rotatable=1;deletable=1;editable=1;connectable=1;strokeWidth=2;strokeColor=#000000;" parent="1" source="478" edge="1">
                    <mxGeometry width="50" height="50" relative="1" as="geometry">
                        <mxPoint x="1075.55" y="312" as="sourcePoint"/>
                        <mxPoint x="1306.55" y="325" as="targetPoint"/>
                    </mxGeometry>
                </mxCell>
                <mxCell id="476" value="" style="endArrow=none;html=1;entryX=0.5;entryY=0.98;entryDx=0;entryDy=0;entryPerimeter=0;strokeWidth=2;strokeColor=#000000;" parent="1" source="496" target="487" edge="1">
                    <mxGeometry width="50" height="50" relative="1" as="geometry">
                        <mxPoint x="1101.82027027027" y="620" as="sourcePoint"/>
                        <mxPoint x="1111.55" y="540" as="targetPoint"/>
                    </mxGeometry>
                </mxCell>
                <mxCell id="477" value="&lt;font style=&quot;font-size: 40px;&quot; color=&quot;#000000&quot;&gt;&lt;b style=&quot;font-size: 40px;&quot;&gt;C Building&lt;/b&gt;&lt;/font&gt;" style="text;html=1;strokeColor=none;fillColor=none;align=center;verticalAlign=middle;whiteSpace=wrap;rounded=0;strokeWidth=2;fontSize=40;" parent="1" vertex="1">
                    <mxGeometry x="1071.55" y="780" width="310" height="30" as="geometry"/>
                </mxCell>
                <mxCell id="478" value="" style="shape=mxgraph.cisco.switches.layer_3_switch;sketch=0;html=1;pointerEvents=1;dashed=0;fillColor=#036897;strokeColor=#000000;strokeWidth=2;verticalLabelPosition=bottom;verticalAlign=top;align=center;outlineConnect=0;points=[[0,0.5,0,0,0],[0,1,0,0,0],[0.08,0.05,0,0,0],[0.5,0,0,0,0],[0.5,1,0,0,0],[0.95,0.94,0,0,0],[1,0,0,0,0],[1,0.27,0,0,0],[1,0.5,0,0,0],[1,0.7,0,0,0]];" parent="1" vertex="1">
                    <mxGeometry x="1001.55" y="270" width="83" height="82" as="geometry"/>
                </mxCell>
                <mxCell id="479" value="" style="shape=mxgraph.cisco.switches.layer_3_switch;sketch=0;html=1;pointerEvents=1;dashed=0;fillColor=#036897;strokeColor=#000000;strokeWidth=2;verticalLabelPosition=bottom;verticalAlign=top;align=center;outlineConnect=0;" parent="1" vertex="1">
                    <mxGeometry x="1306.55" y="270" width="83" height="82" as="geometry"/>
                </mxCell>
                <mxCell id="480" value="" style="endArrow=none;html=1;exitX=0.5;exitY=1;exitDx=0;exitDy=0;exitPerimeter=0;entryX=0.5;entryY=0;entryDx=0;entryDy=0;entryPerimeter=0;strokeWidth=2;strokeColor=#000000;" parent="1" source="478" target="504" edge="1">
                    <mxGeometry width="50" height="50" relative="1" as="geometry">
                        <mxPoint x="1043.55" y="280" as="sourcePoint"/>
                        <mxPoint x="1100.55" y="-36" as="targetPoint"/>
                    </mxGeometry>
                </mxCell>
                <mxCell id="481" value="" style="endArrow=none;html=1;exitX=0;exitY=1;exitDx=0;exitDy=0;exitPerimeter=0;strokeWidth=2;strokeColor=#000000;" parent="1" source="479" target="487" edge="1">
                    <mxGeometry width="50" height="50" relative="1" as="geometry">
                        <mxPoint x="1072.35" y="340.15999999999985" as="sourcePoint"/>
                        <mxPoint x="1248.6554216867469" y="475" as="targetPoint"/>
                    </mxGeometry>
                </mxCell>
                <mxCell id="482" value="" style="endArrow=none;html=1;exitX=0.95;exitY=0.94;exitDx=0;exitDy=0;exitPerimeter=0;strokeWidth=2;strokeColor=#000000;" parent="1" source="479" target="488" edge="1">
                    <mxGeometry width="50" height="50" relative="1" as="geometry">
                        <mxPoint x="1301.55" y="344" as="sourcePoint"/>
                        <mxPoint x="1419.05" y="475" as="targetPoint"/>
                        <Array as="points"/>
                    </mxGeometry>
                </mxCell>
                <mxCell id="483" value="" style="shape=mxgraph.cisco.computers_and_peripherals.workstation;sketch=0;html=1;pointerEvents=1;dashed=0;fillColor=#036897;strokeColor=#000000;strokeWidth=2;verticalLabelPosition=bottom;verticalAlign=top;align=center;outlineConnect=0;" parent="1" vertex="1">
                    <mxGeometry x="953.1499999999999" y="598.6" width="100" height="80" as="geometry"/>
                </mxCell>
                <mxCell id="484" value="" style="group;movable=1;resizable=1;rotatable=1;deletable=1;editable=1;connectable=1;strokeWidth=2;strokeColor=none;" parent="1" vertex="1" connectable="0">
                    <mxGeometry x="1191.55" y="470" width="269.4" height="58.19999999999993" as="geometry"/>
                </mxCell>
                <mxCell id="485" value="" style="ellipse;whiteSpace=wrap;html=1;fontSize=28;fillColor=none;strokeWidth=2;strokeColor=#000000;" parent="484" vertex="1">
                    <mxGeometry x="137.9" y="1.7999999999999545" width="19.5" height="56.4" as="geometry"/>
                </mxCell>
                <mxCell id="486" value="" style="ellipse;whiteSpace=wrap;html=1;fontSize=28;fillColor=none;strokeWidth=2;strokeColor=#000000;" parent="484" vertex="1">
                    <mxGeometry x="108.4" y="1.7999999999999545" width="19.5" height="56.4" as="geometry"/>
                </mxCell>
                <mxCell id="487" value="" style="shape=mxgraph.cisco.switches.workgroup_switch;sketch=0;html=1;pointerEvents=1;dashed=0;fillColor=#036897;strokeColor=#000000;strokeWidth=2;verticalLabelPosition=bottom;verticalAlign=top;align=center;outlineConnect=0;fontSize=16;fontColor=#000000;points=[[0,0.5,0,0,0],[0,0.98,0,0,0],[0.16,0.24,0,0,0],[0.5,0,0,0,0],[0.5,0.98,0,0,0],[0.75,0.86,0,0,0],[0.75,1,0,0,0],[0.76,0.53,0,0,0],[0.76,0.7,0,0,0],[0.87,0.74,0,0,0],[0.98,0.5,0,0,0],[1,0,0,0,0]];" parent="484" vertex="1">
                    <mxGeometry y="5" width="101" height="50" as="geometry"/>
                </mxCell>
                <mxCell id="488" value="" style="shape=mxgraph.cisco.switches.workgroup_switch;sketch=0;html=1;pointerEvents=1;dashed=0;fillColor=#036897;strokeColor=#000000;strokeWidth=2;verticalLabelPosition=bottom;verticalAlign=top;align=center;outlineConnect=0;fontSize=16;fontColor=#000000;points=[[0,0.5,0,0,0],[0,0.64,0,0,0],[0,0.8,0,0,0],[0,0.98,0,0,0],[0.16,0.24,0,0,0],[0.5,0,0,0,0],[0.5,0.98,0,0,0],[0.87,0.74,0,0,0],[0.98,0.5,0,0,0],[1,0,0,0,0]];movable=1;resizable=1;rotatable=1;deletable=1;editable=1;connectable=1;" parent="484" vertex="1">
                    <mxGeometry x="168.4" width="101" height="50" as="geometry"/>
                </mxCell>
                <mxCell id="489" value="" style="endArrow=none;html=1;exitX=0;exitY=0.5;exitDx=0;exitDy=0;exitPerimeter=0;entryX=1.01;entryY=0.4;entryDx=0;entryDy=0;entryPerimeter=0;movable=1;resizable=1;rotatable=1;deletable=1;editable=1;connectable=1;strokeColor=#000000;strokeWidth=2;" parent="484" source="488" target="487" edge="1">
                    <mxGeometry width="50" height="50" relative="1" as="geometry">
                        <mxPoint x="184.4" y="15" as="sourcePoint"/>
                        <mxPoint x="108.4" y="25" as="targetPoint"/>
                    </mxGeometry>
                </mxCell>
                <mxCell id="490" value="" style="endArrow=none;html=1;entryX=0.985;entryY=0.147;entryDx=0;entryDy=0;entryPerimeter=0;exitX=0.16;exitY=0.24;exitDx=0;exitDy=0;exitPerimeter=0;movable=1;resizable=1;rotatable=1;deletable=1;editable=1;connectable=1;strokeColor=#000000;strokeWidth=2;" parent="484" source="488" target="487" edge="1">
                    <mxGeometry width="50" height="50" relative="1" as="geometry">
                        <mxPoint x="168.4" y="25" as="sourcePoint"/>
                        <mxPoint x="128.4" y="-5" as="targetPoint"/>
                    </mxGeometry>
                </mxCell>
                <mxCell id="491" value="" style="endArrow=none;html=1;movable=1;resizable=1;rotatable=1;deletable=1;editable=1;connectable=1;strokeColor=#000000;strokeWidth=2;" parent="484" edge="1">
                    <mxGeometry width="50" height="50" relative="1" as="geometry">
                        <mxPoint x="175.4" y="50" as="sourcePoint"/>
                        <mxPoint x="78.4" y="50" as="targetPoint"/>
                    </mxGeometry>
                </mxCell>
                <mxCell id="492" value="" style="endArrow=none;html=1;movable=1;resizable=1;rotatable=1;deletable=1;editable=1;connectable=1;strokeWidth=2;strokeColor=#000000;" parent="484" edge="1">
                    <mxGeometry width="50" height="50" relative="1" as="geometry">
                        <mxPoint x="170" y="40" as="sourcePoint"/>
                        <mxPoint x="89" y="38" as="targetPoint"/>
                    </mxGeometry>
                </mxCell>
                <mxCell id="493" value="" style="endArrow=none;html=1;exitX=0.95;exitY=0.94;exitDx=0;exitDy=0;exitPerimeter=0;entryX=0.5;entryY=0;entryDx=0;entryDy=0;entryPerimeter=0;strokeWidth=2;strokeColor=#000000;" parent="1" source="478" target="488" edge="1">
                    <mxGeometry width="50" height="50" relative="1" as="geometry">
                        <mxPoint x="1072.3500000000001" y="340.1600000000001" as="sourcePoint"/>
                        <mxPoint x="1391.55" y="470" as="targetPoint"/>
                    </mxGeometry>
                </mxCell>
                <mxCell id="494" value="" style="endArrow=none;html=1;strokeWidth=2;strokeColor=#000000;" parent="1" source="479" target="504" edge="1">
                    <mxGeometry width="50" height="50" relative="1" as="geometry">
                        <mxPoint x="1301.55" y="340.0000000000002" as="sourcePoint"/>
                        <mxPoint x="1131.55" y="489.9999999999998" as="targetPoint"/>
                    </mxGeometry>
                </mxCell>
                <mxCell id="495" value="" style="endArrow=none;html=1;exitX=0.5;exitY=1;exitDx=0;exitDy=0;exitPerimeter=0;strokeWidth=2;strokeColor=#000000;entryX=0.5;entryY=0;entryDx=0;entryDy=0;entryPerimeter=0;" parent="1" source="478" target="487" edge="1">
                    <mxGeometry width="50" height="50" relative="1" as="geometry">
                        <mxPoint x="1301.55" y="312.0000000000002" as="sourcePoint"/>
                        <mxPoint x="1391.55" y="470" as="targetPoint"/>
                    </mxGeometry>
                </mxCell>
                <mxCell id="496" value="" style="aspect=fixed;perimeter=ellipsePerimeter;html=1;align=center;shadow=0;dashed=0;spacingTop=3;image;image=img/lib/active_directory/phone.svg;fillColor=#FFFF66;strokeWidth=2;strokeColor=#000000;" parent="1" vertex="1">
                    <mxGeometry x="1199.52" y="600" width="100" height="80" as="geometry"/>
                </mxCell>
                <mxCell id="497" value="&lt;font color=&quot;#000000&quot; style=&quot;font-size: 20px;&quot;&gt;&lt;b style=&quot;font-size: 20px;&quot;&gt;7 Classroms&lt;/b&gt;&lt;/font&gt;" style="text;html=1;strokeColor=none;fillColor=none;align=center;verticalAlign=middle;whiteSpace=wrap;rounded=0;strokeWidth=2;fontSize=20;" parent="1" vertex="1">
                    <mxGeometry x="907.6999999999999" y="689.6" width="176.85" height="30" as="geometry"/>
                </mxCell>
                <mxCell id="498" value="" style="fontColor=#0066CC;verticalAlign=top;verticalLabelPosition=bottom;labelPosition=center;align=center;html=1;outlineConnect=0;fillColor=#CCCCCC;strokeColor=#000000;gradientColor=none;gradientDirection=north;strokeWidth=2;shape=mxgraph.networks.security_camera;labelBackgroundColor=#000000;" parent="1" vertex="1">
                    <mxGeometry x="1545.1499999999999" y="355" width="100" height="80" as="geometry"/>
                </mxCell>
                <mxCell id="499" value="" style="image;html=1;image=img/lib/clip_art/computers/Printer_Commercial_128x128.png;labelBackgroundColor=#000000;fontColor=#000000;fillColor=#FFFF66;strokeWidth=2;strokeColor=#000000;" parent="1" vertex="1">
                    <mxGeometry x="1370.55" y="603.6" width="100" height="80" as="geometry"/>
                </mxCell>
                <mxCell id="500" value="&lt;font color=&quot;#000000&quot; style=&quot;font-size: 20px;&quot;&gt;&lt;b style=&quot;font-size: 20px;&quot;&gt;3 Printers&lt;br style=&quot;font-size: 20px;&quot;&gt;&lt;br style=&quot;font-size: 20px;&quot;&gt;&lt;/b&gt;&lt;/font&gt;" style="text;html=1;strokeColor=none;fillColor=none;align=center;verticalAlign=middle;whiteSpace=wrap;rounded=0;strokeWidth=2;fontSize=20;" parent="1" vertex="1">
                    <mxGeometry x="1358.95" y="694.6000000000001" width="102" height="30" as="geometry"/>
                </mxCell>
                <mxCell id="501" value="" style="points=[[0.03,0.36,0],[0.18,0,0],[0.5,0.34,0],[0.82,0,0],[0.97,0.36,0],[1,0.67,0],[0.975,0.975,0],[0.5,1,0],[0.025,0.975,0],[0,0.67,0]];verticalLabelPosition=bottom;sketch=0;html=1;verticalAlign=top;aspect=fixed;align=center;pointerEvents=1;shape=mxgraph.cisco19.wireless_access_point;fillColor=#005073;strokeColor=#000000;strokeWidth=2;" parent="1" vertex="1">
                    <mxGeometry x="1551.55" y="614.6" width="100" height="80" as="geometry"/>
                </mxCell>
                <mxCell id="502" value="" style="endArrow=none;html=1;fontColor=#000000;strokeWidth=2;strokeColor=#000000;" parent="1" source="483" target="504" edge="1">
                    <mxGeometry width="50" height="50" relative="1" as="geometry">
                        <mxPoint x="881.55" y="620" as="sourcePoint"/>
                        <mxPoint x="931.55" y="570" as="targetPoint"/>
                    </mxGeometry>
                </mxCell>
                <mxCell id="503" value="" style="endArrow=none;html=1;exitX=0.5;exitY=0;exitDx=0;exitDy=0;strokeWidth=2;strokeColor=#000000;" parent="1" source="499" target="488" edge="1">
                    <mxGeometry width="50" height="50" relative="1" as="geometry">
                        <mxPoint x="1257.727018649419" y="620.0336441569893" as="sourcePoint"/>
                        <mxPoint x="1411.55" y="520" as="targetPoint"/>
                    </mxGeometry>
                </mxCell>
                <mxCell id="504" value="" style="shape=mxgraph.cisco.switches.workgroup_switch;sketch=0;html=1;pointerEvents=1;dashed=0;fillColor=#036897;strokeColor=#000000;strokeWidth=2;verticalLabelPosition=bottom;verticalAlign=top;align=center;outlineConnect=0;fontSize=16;fontColor=#000000;points=[[0,0.5,0,0,0],[0,0.98,0,0,0],[0.16,0.24,0,0,0],[0.5,0,0,0,0],[0.5,0.98,0,0,0],[0.75,0.86,0,0,0],[0.75,1,0,0,0],[0.76,0.53,0,0,0],[0.76,0.7,0,0,0],[0.87,0.74,0,0,0],[0.98,0.5,0,0,0],[1,0,0,0,0]];" parent="1" vertex="1">
                    <mxGeometry x="952.1499999999999" y="479.20000000000005" width="101" height="50" as="geometry"/>
                </mxCell>
                <mxCell id="505" value="&lt;font color=&quot;#000000&quot; style=&quot;font-size: 20px;&quot;&gt;&lt;b style=&quot;font-size: 20px;&quot;&gt;Security Cameras&lt;br style=&quot;font-size: 20px;&quot;&gt;&lt;/b&gt;&lt;/font&gt;" style="text;html=1;strokeColor=none;fillColor=none;align=center;verticalAlign=middle;whiteSpace=wrap;rounded=0;strokeWidth=2;fontSize=20;" parent="1" vertex="1">
                    <mxGeometry x="1525.1499999999999" y="450" width="120" height="30" as="geometry"/>
                </mxCell>
                <mxCell id="506" value="&lt;font color=&quot;#000000&quot; style=&quot;font-size: 20px;&quot;&gt;&lt;b style=&quot;font-size: 20px;&quot;&gt;Alarm Systems&lt;br style=&quot;font-size: 20px;&quot;&gt;&lt;/b&gt;&lt;/font&gt;" style="text;html=1;strokeColor=none;fillColor=none;align=center;verticalAlign=middle;whiteSpace=wrap;rounded=0;strokeWidth=2;fontSize=20;" parent="1" vertex="1">
                    <mxGeometry x="1505.6499999999999" y="568.6" width="170" height="30" as="geometry"/>
                </mxCell>
                <mxCell id="507" value="&lt;font color=&quot;#000000&quot; style=&quot;font-size: 20px;&quot;&gt;&lt;b style=&quot;font-size: 20px;&quot;&gt;Wireless Access Points&lt;br style=&quot;font-size: 20px;&quot;&gt;&lt;/b&gt;&lt;/font&gt;" style="text;html=1;strokeColor=none;fillColor=none;align=center;verticalAlign=middle;whiteSpace=wrap;rounded=0;strokeWidth=2;fontSize=20;" parent="1" vertex="1">
                    <mxGeometry x="1494.6499999999999" y="703.6000000000001" width="201" height="30" as="geometry"/>
                </mxCell>
                <mxCell id="508" value="" style="rounded=1;whiteSpace=wrap;html=1;fontSize=28;fillColor=#DAE8FC;strokeColor=#6C8EBF;fontColor=#ffffff;strokeWidth=3;" parent="1" vertex="1">
                    <mxGeometry x="1731.55" y="245" width="868.45" height="580" as="geometry"/>
                </mxCell>
                <mxCell id="509" value="" style="shadow=0;dashed=0;html=1;strokeColor=#000000;fillColor=#4495D1;labelPosition=center;verticalLabelPosition=bottom;verticalAlign=top;align=center;outlineConnect=0;shape=mxgraph.veeam.2d.alarm;strokeWidth=2;" parent="1" vertex="1">
                    <mxGeometry x="2445.15" y="490" width="100" height="80" as="geometry"/>
                </mxCell>
                <mxCell id="510" value="" style="endArrow=none;html=1;entryX=0;entryY=1;entryDx=0;entryDy=0;entryPerimeter=0;strokeWidth=2;strokeColor=#000000;" parent="1" source="530" target="540" edge="1">
                    <mxGeometry width="50" height="50" relative="1" as="geometry">
                        <mxPoint x="2361.55" y="490" as="sourcePoint"/>
                        <mxPoint x="2421.55" y="390" as="targetPoint"/>
                    </mxGeometry>
                </mxCell>
                <mxCell id="511" value="" style="endArrow=none;html=1;entryX=-0.022;entryY=0.56;entryDx=0;entryDy=0;entryPerimeter=0;exitX=0.98;exitY=0.5;exitDx=0;exitDy=0;exitPerimeter=0;strokeWidth=2;strokeColor=#000000;" parent="1" source="530" target="509" edge="1">
                    <mxGeometry width="50" height="50" relative="1" as="geometry">
                        <mxPoint x="2351.55" y="500" as="sourcePoint"/>
                        <mxPoint x="2421.55" y="530" as="targetPoint"/>
                    </mxGeometry>
                </mxCell>
                <mxCell id="512" value="" style="endArrow=none;html=1;entryX=0;entryY=0.67;entryDx=0;entryDy=0;entryPerimeter=0;strokeWidth=2;strokeColor=#000000;" parent="1" source="530" target="543" edge="1">
                    <mxGeometry width="50" height="50" relative="1" as="geometry">
                        <mxPoint x="2341.55" y="510" as="sourcePoint"/>
                        <mxPoint x="2421.55" y="570" as="targetPoint"/>
                    </mxGeometry>
                </mxCell>
                <mxCell id="513" value="&lt;font color=&quot;#000000&quot; style=&quot;font-size: 20px;&quot;&gt;&lt;b style=&quot;font-size: 20px;&quot;&gt;7 Phones&lt;br style=&quot;font-size: 20px;&quot;&gt;&lt;/b&gt;&lt;/font&gt;" style="text;html=1;strokeColor=none;fillColor=none;align=center;verticalAlign=middle;whiteSpace=wrap;rounded=0;strokeWidth=2;fontSize=20;" parent="1" vertex="1">
                    <mxGeometry x="2091.55" y="678.6" width="102.03" height="30" as="geometry"/>
                </mxCell>
                <mxCell id="514" value="" style="ellipse;whiteSpace=wrap;html=1;fontSize=28;fillColor=none;strokeWidth=2;strokeColor=#000000;" parent="1" vertex="1">
                    <mxGeometry x="2061.55" y="292" width="19.5" height="56.4" as="geometry"/>
                </mxCell>
                <mxCell id="515" value="" style="endArrow=none;html=1;entryX=0;entryY=0.5;entryDx=0;entryDy=0;entryPerimeter=0;exitX=1;exitY=0.5;exitDx=0;exitDy=0;exitPerimeter=0;movable=1;resizable=1;rotatable=1;deletable=1;editable=1;connectable=1;strokeWidth=2;strokeColor=#000000;" parent="1" source="520" target="521" edge="1">
                    <mxGeometry width="50" height="50" relative="1" as="geometry">
                        <mxPoint x="1836.6629870129868" y="622.5999999999999" as="sourcePoint"/>
                        <mxPoint x="1842.0266233766233" y="540" as="targetPoint"/>
                    </mxGeometry>
                </mxCell>
                <mxCell id="516" value="" style="ellipse;whiteSpace=wrap;html=1;fontSize=28;fillColor=none;strokeWidth=2;strokeColor=#000000;" parent="1" vertex="1">
                    <mxGeometry x="2123.55" y="290" width="19.5" height="56.4" as="geometry"/>
                </mxCell>
                <mxCell id="517" value="" style="endArrow=none;html=1;exitX=1;exitY=0.7;exitDx=0;exitDy=0;exitPerimeter=0;movable=1;resizable=1;rotatable=1;deletable=1;editable=1;connectable=1;strokeWidth=2;strokeColor=#000000;" parent="1" source="520" edge="1">
                    <mxGeometry width="50" height="50" relative="1" as="geometry">
                        <mxPoint x="1975.55" y="312" as="sourcePoint"/>
                        <mxPoint x="2206.55" y="325" as="targetPoint"/>
                    </mxGeometry>
                </mxCell>
                <mxCell id="518" value="" style="endArrow=none;html=1;entryX=0.5;entryY=0.98;entryDx=0;entryDy=0;entryPerimeter=0;strokeWidth=2;strokeColor=#000000;" parent="1" source="538" target="529" edge="1">
                    <mxGeometry width="50" height="50" relative="1" as="geometry">
                        <mxPoint x="2001.82027027027" y="620" as="sourcePoint"/>
                        <mxPoint x="2011.55" y="540" as="targetPoint"/>
                    </mxGeometry>
                </mxCell>
                <mxCell id="519" value="&lt;font style=&quot;font-size: 40px;&quot; color=&quot;#000000&quot;&gt;&lt;b style=&quot;font-size: 40px;&quot;&gt;J Building&lt;/b&gt;&lt;/font&gt;" style="text;html=1;strokeColor=none;fillColor=none;align=center;verticalAlign=middle;whiteSpace=wrap;rounded=0;strokeWidth=2;fontSize=40;" parent="1" vertex="1">
                    <mxGeometry x="1971.55" y="780" width="310" height="30" as="geometry"/>
                </mxCell>
                <mxCell id="520" value="" style="shape=mxgraph.cisco.switches.layer_3_switch;sketch=0;html=1;pointerEvents=1;dashed=0;fillColor=#036897;strokeColor=#000000;strokeWidth=2;verticalLabelPosition=bottom;verticalAlign=top;align=center;outlineConnect=0;points=[[0,0.5,0,0,0],[0,1,0,0,0],[0.08,0.05,0,0,0],[0.5,0,0,0,0],[0.5,1,0,0,0],[0.95,0.94,0,0,0],[1,0,0,0,0],[1,0.27,0,0,0],[1,0.5,0,0,0],[1,0.7,0,0,0]];" parent="1" vertex="1">
                    <mxGeometry x="1901.55" y="270" width="83" height="82" as="geometry"/>
                </mxCell>
                <mxCell id="521" value="" style="shape=mxgraph.cisco.switches.layer_3_switch;sketch=0;html=1;pointerEvents=1;dashed=0;fillColor=#036897;strokeColor=#000000;strokeWidth=2;verticalLabelPosition=bottom;verticalAlign=top;align=center;outlineConnect=0;" parent="1" vertex="1">
                    <mxGeometry x="2206.55" y="270" width="83" height="82" as="geometry"/>
                </mxCell>
                <mxCell id="522" value="" style="endArrow=none;html=1;exitX=0.5;exitY=1;exitDx=0;exitDy=0;exitPerimeter=0;entryX=0.5;entryY=0;entryDx=0;entryDy=0;entryPerimeter=0;strokeWidth=2;strokeColor=#000000;" parent="1" source="520" target="546" edge="1">
                    <mxGeometry width="50" height="50" relative="1" as="geometry">
                        <mxPoint x="1943.55" y="280" as="sourcePoint"/>
                        <mxPoint x="2000.55" y="-36" as="targetPoint"/>
                    </mxGeometry>
                </mxCell>
                <mxCell id="523" value="" style="endArrow=none;html=1;exitX=0;exitY=1;exitDx=0;exitDy=0;exitPerimeter=0;strokeWidth=2;strokeColor=#000000;" parent="1" source="521" target="529" edge="1">
                    <mxGeometry width="50" height="50" relative="1" as="geometry">
                        <mxPoint x="1972.35" y="340.15999999999985" as="sourcePoint"/>
                        <mxPoint x="2148.655421686747" y="475" as="targetPoint"/>
                    </mxGeometry>
                </mxCell>
                <mxCell id="524" value="" style="endArrow=none;html=1;exitX=0.95;exitY=0.94;exitDx=0;exitDy=0;exitPerimeter=0;strokeWidth=2;strokeColor=#000000;" parent="1" source="521" target="530" edge="1">
                    <mxGeometry width="50" height="50" relative="1" as="geometry">
                        <mxPoint x="2201.55" y="344" as="sourcePoint"/>
                        <mxPoint x="2319.05" y="475" as="targetPoint"/>
                        <Array as="points"/>
                    </mxGeometry>
                </mxCell>
                <mxCell id="525" value="" style="shape=mxgraph.cisco.computers_and_peripherals.workstation;sketch=0;html=1;pointerEvents=1;dashed=0;fillColor=#036897;strokeColor=#000000;strokeWidth=2;verticalLabelPosition=bottom;verticalAlign=top;align=center;outlineConnect=0;" parent="1" vertex="1">
                    <mxGeometry x="1853.1499999999999" y="598.6" width="100" height="80" as="geometry"/>
                </mxCell>
                <mxCell id="526" value="" style="group;movable=1;resizable=1;rotatable=1;deletable=1;editable=1;connectable=1;strokeWidth=2;strokeColor=none;" parent="1" vertex="1" connectable="0">
                    <mxGeometry x="2091.55" y="470" width="269.4" height="58.19999999999993" as="geometry"/>
                </mxCell>
                <mxCell id="527" value="" style="ellipse;whiteSpace=wrap;html=1;fontSize=28;fillColor=none;strokeWidth=2;strokeColor=#000000;" parent="526" vertex="1">
                    <mxGeometry x="137.9" y="1.7999999999999545" width="19.5" height="56.4" as="geometry"/>
                </mxCell>
                <mxCell id="528" value="" style="ellipse;whiteSpace=wrap;html=1;fontSize=28;fillColor=none;strokeWidth=2;strokeColor=#000000;" parent="526" vertex="1">
                    <mxGeometry x="108.4" y="1.7999999999999545" width="19.5" height="56.4" as="geometry"/>
                </mxCell>
                <mxCell id="529" value="" style="shape=mxgraph.cisco.switches.workgroup_switch;sketch=0;html=1;pointerEvents=1;dashed=0;fillColor=#036897;strokeColor=#000000;strokeWidth=2;verticalLabelPosition=bottom;verticalAlign=top;align=center;outlineConnect=0;fontSize=16;fontColor=#000000;points=[[0,0.5,0,0,0],[0,0.98,0,0,0],[0.16,0.24,0,0,0],[0.5,0,0,0,0],[0.5,0.98,0,0,0],[0.75,0.86,0,0,0],[0.75,1,0,0,0],[0.76,0.53,0,0,0],[0.76,0.7,0,0,0],[0.87,0.74,0,0,0],[0.98,0.5,0,0,0],[1,0,0,0,0]];" parent="526" vertex="1">
                    <mxGeometry y="5" width="101" height="50" as="geometry"/>
                </mxCell>
                <mxCell id="530" value="" style="shape=mxgraph.cisco.switches.workgroup_switch;sketch=0;html=1;pointerEvents=1;dashed=0;fillColor=#036897;strokeColor=#000000;strokeWidth=2;verticalLabelPosition=bottom;verticalAlign=top;align=center;outlineConnect=0;fontSize=16;fontColor=#000000;points=[[0,0.5,0,0,0],[0,0.64,0,0,0],[0,0.8,0,0,0],[0,0.98,0,0,0],[0.16,0.24,0,0,0],[0.5,0,0,0,0],[0.5,0.98,0,0,0],[0.87,0.74,0,0,0],[0.98,0.5,0,0,0],[1,0,0,0,0]];movable=1;resizable=1;rotatable=1;deletable=1;editable=1;connectable=1;" parent="526" vertex="1">
                    <mxGeometry x="168.4" width="101" height="50" as="geometry"/>
                </mxCell>
                <mxCell id="531" value="" style="endArrow=none;html=1;exitX=0;exitY=0.5;exitDx=0;exitDy=0;exitPerimeter=0;entryX=1.01;entryY=0.4;entryDx=0;entryDy=0;entryPerimeter=0;movable=1;resizable=1;rotatable=1;deletable=1;editable=1;connectable=1;strokeColor=#000000;strokeWidth=2;" parent="526" source="530" target="529" edge="1">
                    <mxGeometry width="50" height="50" relative="1" as="geometry">
                        <mxPoint x="184.4" y="15" as="sourcePoint"/>
                        <mxPoint x="108.4" y="25" as="targetPoint"/>
                    </mxGeometry>
                </mxCell>
                <mxCell id="532" value="" style="endArrow=none;html=1;entryX=0.985;entryY=0.147;entryDx=0;entryDy=0;entryPerimeter=0;exitX=0.16;exitY=0.24;exitDx=0;exitDy=0;exitPerimeter=0;movable=1;resizable=1;rotatable=1;deletable=1;editable=1;connectable=1;strokeColor=#000000;strokeWidth=2;" parent="526" source="530" target="529" edge="1">
                    <mxGeometry width="50" height="50" relative="1" as="geometry">
                        <mxPoint x="168.4" y="25" as="sourcePoint"/>
                        <mxPoint x="128.4" y="-5" as="targetPoint"/>
                    </mxGeometry>
                </mxCell>
                <mxCell id="533" value="" style="endArrow=none;html=1;movable=1;resizable=1;rotatable=1;deletable=1;editable=1;connectable=1;strokeColor=#000000;strokeWidth=2;" parent="526" edge="1">
                    <mxGeometry width="50" height="50" relative="1" as="geometry">
                        <mxPoint x="175.4" y="50" as="sourcePoint"/>
                        <mxPoint x="78.4" y="50" as="targetPoint"/>
                    </mxGeometry>
                </mxCell>
                <mxCell id="534" value="" style="endArrow=none;html=1;movable=1;resizable=1;rotatable=1;deletable=1;editable=1;connectable=1;strokeWidth=2;strokeColor=#000000;" parent="526" edge="1">
                    <mxGeometry width="50" height="50" relative="1" as="geometry">
                        <mxPoint x="170" y="40" as="sourcePoint"/>
                        <mxPoint x="89" y="38" as="targetPoint"/>
                    </mxGeometry>
                </mxCell>
                <mxCell id="535" value="" style="endArrow=none;html=1;exitX=0.95;exitY=0.94;exitDx=0;exitDy=0;exitPerimeter=0;entryX=0.5;entryY=0;entryDx=0;entryDy=0;entryPerimeter=0;strokeWidth=2;strokeColor=#000000;" parent="1" source="520" target="530" edge="1">
                    <mxGeometry width="50" height="50" relative="1" as="geometry">
                        <mxPoint x="1972.3500000000001" y="340.1600000000001" as="sourcePoint"/>
                        <mxPoint x="2291.55" y="470" as="targetPoint"/>
                    </mxGeometry>
                </mxCell>
                <mxCell id="536" value="" style="endArrow=none;html=1;strokeWidth=2;strokeColor=#000000;" parent="1" source="521" target="546" edge="1">
                    <mxGeometry width="50" height="50" relative="1" as="geometry">
                        <mxPoint x="2201.55" y="340.0000000000002" as="sourcePoint"/>
                        <mxPoint x="2031.55" y="489.9999999999998" as="targetPoint"/>
                    </mxGeometry>
                </mxCell>
                <mxCell id="537" value="" style="endArrow=none;html=1;exitX=0.5;exitY=1;exitDx=0;exitDy=0;exitPerimeter=0;strokeWidth=2;strokeColor=#000000;entryX=0.5;entryY=0;entryDx=0;entryDy=0;entryPerimeter=0;" parent="1" source="520" target="529" edge="1">
                    <mxGeometry width="50" height="50" relative="1" as="geometry">
                        <mxPoint x="2201.55" y="312.0000000000002" as="sourcePoint"/>
                        <mxPoint x="2291.55" y="470" as="targetPoint"/>
                    </mxGeometry>
                </mxCell>
                <mxCell id="538" value="" style="aspect=fixed;perimeter=ellipsePerimeter;html=1;align=center;shadow=0;dashed=0;spacingTop=3;image;image=img/lib/active_directory/phone.svg;fillColor=#FFFF66;strokeWidth=2;strokeColor=#000000;" parent="1" vertex="1">
                    <mxGeometry x="2099.5200000000004" y="600" width="100" height="80" as="geometry"/>
                </mxCell>
                <mxCell id="539" value="&lt;font color=&quot;#000000&quot; style=&quot;font-size: 20px;&quot;&gt;&lt;b style=&quot;font-size: 20px;&quot;&gt;7 Classroms&lt;/b&gt;&lt;/font&gt;" style="text;html=1;strokeColor=none;fillColor=none;align=center;verticalAlign=middle;whiteSpace=wrap;rounded=0;strokeWidth=2;fontSize=20;" parent="1" vertex="1">
                    <mxGeometry x="1823.1499999999999" y="683.6" width="130" height="30" as="geometry"/>
                </mxCell>
                <mxCell id="540" value="" style="fontColor=#0066CC;verticalAlign=top;verticalLabelPosition=bottom;labelPosition=center;align=center;html=1;outlineConnect=0;fillColor=#CCCCCC;strokeColor=#000000;gradientColor=none;gradientDirection=north;strokeWidth=2;shape=mxgraph.networks.security_camera;labelBackgroundColor=#000000;" parent="1" vertex="1">
                    <mxGeometry x="2445.15" y="355" width="100" height="80" as="geometry"/>
                </mxCell>
                <mxCell id="541" value="" style="image;html=1;image=img/lib/clip_art/computers/Printer_Commercial_128x128.png;labelBackgroundColor=#000000;fontColor=#000000;fillColor=#FFFF66;strokeWidth=2;strokeColor=#000000;" parent="1" vertex="1">
                    <mxGeometry x="2270.55" y="603.6" width="100" height="80" as="geometry"/>
                </mxCell>
                <mxCell id="542" value="&lt;font color=&quot;#000000&quot; style=&quot;font-size: 20px;&quot;&gt;&lt;b style=&quot;font-size: 20px;&quot;&gt;3 Printers&lt;br style=&quot;font-size: 20px;&quot;&gt;&lt;br style=&quot;font-size: 20px;&quot;&gt;&lt;/b&gt;&lt;/font&gt;" style="text;html=1;strokeColor=none;fillColor=none;align=center;verticalAlign=middle;whiteSpace=wrap;rounded=0;strokeWidth=2;fontSize=20;" parent="1" vertex="1">
                    <mxGeometry x="2258.9500000000003" y="694.5999999999999" width="102" height="30" as="geometry"/>
                </mxCell>
                <mxCell id="543" value="" style="points=[[0.03,0.36,0],[0.18,0,0],[0.5,0.34,0],[0.82,0,0],[0.97,0.36,0],[1,0.67,0],[0.975,0.975,0],[0.5,1,0],[0.025,0.975,0],[0,0.67,0]];verticalLabelPosition=bottom;sketch=0;html=1;verticalAlign=top;aspect=fixed;align=center;pointerEvents=1;shape=mxgraph.cisco19.wireless_access_point;fillColor=#005073;strokeColor=#000000;strokeWidth=2;" parent="1" vertex="1">
                    <mxGeometry x="2451.55" y="614.6" width="100" height="80" as="geometry"/>
                </mxCell>
                <mxCell id="544" value="" style="endArrow=none;html=1;fontColor=#000000;strokeWidth=2;strokeColor=#000000;" parent="1" source="525" target="546" edge="1">
                    <mxGeometry width="50" height="50" relative="1" as="geometry">
                        <mxPoint x="1781.55" y="620" as="sourcePoint"/>
                        <mxPoint x="1831.55" y="570" as="targetPoint"/>
                    </mxGeometry>
                </mxCell>
                <mxCell id="545" value="" style="endArrow=none;html=1;exitX=0.5;exitY=0;exitDx=0;exitDy=0;strokeWidth=2;strokeColor=#000000;" parent="1" source="541" target="530" edge="1">
                    <mxGeometry width="50" height="50" relative="1" as="geometry">
                        <mxPoint x="2157.7270186494193" y="620.0336441569893" as="sourcePoint"/>
                        <mxPoint x="2311.55" y="520" as="targetPoint"/>
                    </mxGeometry>
                </mxCell>
                <mxCell id="546" value="" style="shape=mxgraph.cisco.switches.workgroup_switch;sketch=0;html=1;pointerEvents=1;dashed=0;fillColor=#036897;strokeColor=#000000;strokeWidth=2;verticalLabelPosition=bottom;verticalAlign=top;align=center;outlineConnect=0;fontSize=16;fontColor=#000000;points=[[0,0.5,0,0,0],[0,0.98,0,0,0],[0.16,0.24,0,0,0],[0.5,0,0,0,0],[0.5,0.98,0,0,0],[0.75,0.86,0,0,0],[0.75,1,0,0,0],[0.76,0.53,0,0,0],[0.76,0.7,0,0,0],[0.87,0.74,0,0,0],[0.98,0.5,0,0,0],[1,0,0,0,0]];" parent="1" vertex="1">
                    <mxGeometry x="1852.1499999999999" y="479.20000000000005" width="101" height="50" as="geometry"/>
                </mxCell>
                <mxCell id="547" value="&lt;font color=&quot;#000000&quot; style=&quot;font-size: 20px;&quot;&gt;&lt;b style=&quot;font-size: 20px;&quot;&gt;Security Cameras&lt;br style=&quot;font-size: 20px;&quot;&gt;&lt;/b&gt;&lt;/font&gt;" style="text;html=1;strokeColor=none;fillColor=none;align=center;verticalAlign=middle;whiteSpace=wrap;rounded=0;strokeWidth=2;fontSize=20;" parent="1" vertex="1">
                    <mxGeometry x="2425.15" y="450" width="120" height="30" as="geometry"/>
                </mxCell>
                <mxCell id="548" value="&lt;font color=&quot;#000000&quot; style=&quot;font-size: 20px;&quot;&gt;&lt;b style=&quot;font-size: 20px;&quot;&gt;Alarm Systems&lt;br style=&quot;font-size: 20px;&quot;&gt;&lt;/b&gt;&lt;/font&gt;" style="text;html=1;strokeColor=none;fillColor=none;align=center;verticalAlign=middle;whiteSpace=wrap;rounded=0;strokeWidth=2;fontSize=20;" parent="1" vertex="1">
                    <mxGeometry x="2405.65" y="568.6" width="170" height="30" as="geometry"/>
                </mxCell>
                <mxCell id="549" value="&lt;font color=&quot;#000000&quot; style=&quot;font-size: 20px;&quot;&gt;&lt;b style=&quot;font-size: 20px;&quot;&gt;Wireless Access Points&lt;br style=&quot;font-size: 20px;&quot;&gt;&lt;/b&gt;&lt;/font&gt;" style="text;html=1;strokeColor=none;fillColor=none;align=center;verticalAlign=middle;whiteSpace=wrap;rounded=0;strokeWidth=2;fontSize=20;" parent="1" vertex="1">
                    <mxGeometry x="2394.65" y="703.5999999999999" width="201" height="30" as="geometry"/>
                </mxCell>
                <mxCell id="592" value="" style="endArrow=none;html=1;strokeWidth=3;exitX=0;exitY=1;exitDx=0;exitDy=0;exitPerimeter=0;strokeColor=#000000;entryX=0.5;entryY=0;entryDx=0;entryDy=0;entryPerimeter=0;" parent="1" source="8" target="379" edge="1">
                    <mxGeometry width="50" height="50" relative="1" as="geometry">
                        <mxPoint x="950.9699999999993" y="-554.75" as="sourcePoint"/>
                        <mxPoint x="951.5151652892573" y="-387.75" as="targetPoint"/>
                    </mxGeometry>
                </mxCell>
                <mxCell id="593" value="" style="endArrow=none;html=1;strokeWidth=3;exitX=0;exitY=1;exitDx=0;exitDy=0;exitPerimeter=0;strokeColor=#000000;entryX=0.5;entryY=0;entryDx=0;entryDy=0;entryPerimeter=0;" parent="1" source="8" target="380" edge="1">
                    <mxGeometry width="50" height="50" relative="1" as="geometry">
                        <mxPoint x="512.8100000000004" y="-237.75" as="sourcePoint"/>
                        <mxPoint x="-746.9499999999998" y="274.99999999999955" as="targetPoint"/>
                    </mxGeometry>
                </mxCell>
                <mxCell id="594" value="" style="endArrow=none;html=1;strokeWidth=3;exitX=0.5;exitY=1;exitDx=0;exitDy=0;exitPerimeter=0;strokeColor=#000000;entryX=0.5;entryY=0;entryDx=0;entryDy=0;entryPerimeter=0;" parent="1" source="8" target="436" edge="1">
                    <mxGeometry width="50" height="50" relative="1" as="geometry">
                        <mxPoint x="512.8100000000004" y="-237.74999999999977" as="sourcePoint"/>
                        <mxPoint x="-441.9499999999998" y="275" as="targetPoint"/>
                    </mxGeometry>
                </mxCell>
                <mxCell id="595" value="" style="endArrow=none;html=1;strokeWidth=3;strokeColor=#000000;entryX=0.5;entryY=0;entryDx=0;entryDy=0;entryPerimeter=0;exitX=0.5;exitY=1;exitDx=0;exitDy=0;exitPerimeter=0;" parent="1" source="8" target="437" edge="1">
                    <mxGeometry width="50" height="50" relative="1" as="geometry">
                        <mxPoint x="570" y="-250" as="sourcePoint"/>
                        <mxPoint x="153.05000000000018" y="280" as="targetPoint"/>
                    </mxGeometry>
                </mxCell>
                <mxCell id="597" value="" style="endArrow=none;html=1;strokeWidth=3;strokeColor=#000000;exitX=0.7;exitY=1;exitDx=0;exitDy=0;exitPerimeter=0;entryX=0.5;entryY=0;entryDx=0;entryDy=0;entryPerimeter=0;" parent="1" source="8" target="478" edge="1">
                    <mxGeometry width="50" height="50" relative="1" as="geometry">
                        <mxPoint x="587.81" y="-237.75" as="sourcePoint"/>
                        <mxPoint x="830" y="150" as="targetPoint"/>
                    </mxGeometry>
                </mxCell>
                <mxCell id="598" value="" style="endArrow=none;html=1;strokeWidth=3;strokeColor=#000000;exitX=0.7;exitY=1;exitDx=0;exitDy=0;exitPerimeter=0;entryX=0.5;entryY=0;entryDx=0;entryDy=0;entryPerimeter=0;" parent="1" source="8" target="479" edge="1">
                    <mxGeometry width="50" height="50" relative="1" as="geometry">
                        <mxPoint x="617.81" y="-237.75" as="sourcePoint"/>
                        <mxPoint x="1053.0500000000002" y="280.0000000000002" as="targetPoint"/>
                    </mxGeometry>
                </mxCell>
                <mxCell id="599" value="" style="endArrow=none;html=1;strokeWidth=3;strokeColor=#000000;entryX=0.08;entryY=0.05;entryDx=0;entryDy=0;entryPerimeter=0;exitX=0.95;exitY=0.94;exitDx=0;exitDy=0;exitPerimeter=0;" parent="1" source="8" target="520" edge="1">
                    <mxGeometry width="50" height="50" relative="1" as="geometry">
                        <mxPoint x="617.8100000000004" y="-237.75" as="sourcePoint"/>
                        <mxPoint x="1358.0500000000002" y="280" as="targetPoint"/>
                    </mxGeometry>
                </mxCell>
                <mxCell id="600" value="" style="endArrow=none;html=1;strokeWidth=3;strokeColor=#000000;entryX=0.08;entryY=0.05;entryDx=0;entryDy=0;entryPerimeter=0;" parent="1" source="8" target="521" edge="1">
                    <mxGeometry width="50" height="50" relative="1" as="geometry">
                        <mxPoint x="662.8100000000004" y="-280.18704403621336" as="sourcePoint"/>
                        <mxPoint x="1456.0000610351562" y="-110" as="targetPoint"/>
                    </mxGeometry>
                </mxCell>
                <mxCell id="601" value="" style="endArrow=none;html=1;strokeWidth=3;strokeColor=#000000;entryX=0.5;entryY=0;entryDx=0;entryDy=0;entryPerimeter=0;exitX=0.95;exitY=0.94;exitDx=0;exitDy=0;exitPerimeter=0;" parent="1" source="243" target="521" edge="1">
                    <mxGeometry width="50" height="50" relative="1" as="geometry">
                        <mxPoint x="672.8100000000004" y="-270.18704403621336" as="sourcePoint"/>
                        <mxPoint x="1963.0500000000002" y="290" as="targetPoint"/>
                    </mxGeometry>
                </mxCell>
                <mxCell id="602" value="" style="endArrow=none;html=1;strokeWidth=3;strokeColor=#000000;entryX=0.5;entryY=0;entryDx=0;entryDy=0;entryPerimeter=0;exitX=0.95;exitY=0.94;exitDx=0;exitDy=0;exitPerimeter=0;" parent="1" source="243" target="520" edge="1">
                    <mxGeometry width="50" height="50" relative="1" as="geometry">
                        <mxPoint x="1010" y="-250" as="sourcePoint"/>
                        <mxPoint x="2223.1900000000005" y="284.10000000000036" as="targetPoint"/>
                    </mxGeometry>
                </mxCell>
                <mxCell id="603" value="" style="endArrow=none;html=1;strokeWidth=3;strokeColor=#000000;entryX=0.5;entryY=0;entryDx=0;entryDy=0;entryPerimeter=0;exitX=0.73;exitY=1;exitDx=0;exitDy=0;exitPerimeter=0;" parent="1" source="243" target="479" edge="1">
                    <mxGeometry width="50" height="50" relative="1" as="geometry">
                        <mxPoint x="1530" y="-160" as="sourcePoint"/>
                        <mxPoint x="1953.0499999999993" y="280" as="targetPoint"/>
                    </mxGeometry>
                </mxCell>
                <mxCell id="604" value="" style="endArrow=none;html=1;strokeWidth=3;strokeColor=#000000;entryX=0.5;entryY=0;entryDx=0;entryDy=0;entryPerimeter=0;exitX=0.73;exitY=1;exitDx=0;exitDy=0;exitPerimeter=0;" parent="1" source="243" target="478" edge="1">
                    <mxGeometry width="50" height="50" relative="1" as="geometry">
                        <mxPoint x="986.2600000000002" y="-237.75" as="sourcePoint"/>
                        <mxPoint x="1358.0500000000002" y="280" as="targetPoint"/>
                    </mxGeometry>
                </mxCell>
                <mxCell id="605" value="" style="endArrow=none;html=1;strokeWidth=3;strokeColor=#000000;exitX=0.5;exitY=1;exitDx=0;exitDy=0;exitPerimeter=0;" parent="1" source="243" target="437" edge="1">
                    <mxGeometry width="50" height="50" relative="1" as="geometry">
                        <mxPoint x="986.2600000000002" y="-237.75" as="sourcePoint"/>
                        <mxPoint x="1053.0500000000002" y="280" as="targetPoint"/>
                    </mxGeometry>
                </mxCell>
                <mxCell id="606" value="" style="endArrow=none;html=1;strokeWidth=3;strokeColor=#000000;exitX=0.5;exitY=1;exitDx=0;exitDy=0;exitPerimeter=0;entryX=1;entryY=0;entryDx=0;entryDy=0;entryPerimeter=0;" parent="1" source="243" target="436" edge="1">
                    <mxGeometry width="50" height="50" relative="1" as="geometry">
                        <mxPoint x="951.7600000000002" y="-237.75" as="sourcePoint"/>
                        <mxPoint x="494.27748993288606" y="280" as="targetPoint"/>
                    </mxGeometry>
                </mxCell>
                <mxCell id="607" value="" style="endArrow=none;html=1;strokeWidth=3;strokeColor=#000000;exitX=0;exitY=1;exitDx=0;exitDy=0;exitPerimeter=0;entryX=0.5;entryY=0;entryDx=0;entryDy=0;entryPerimeter=0;" parent="1" source="243" target="380" edge="1">
                    <mxGeometry width="50" height="50" relative="1" as="geometry">
                        <mxPoint x="951.7600000000002" y="-237.75" as="sourcePoint"/>
                        <mxPoint x="194.55000000000018" y="280" as="targetPoint"/>
                    </mxGeometry>
                </mxCell>
                <mxCell id="608" value="" style="endArrow=none;html=1;strokeWidth=3;strokeColor=#000000;exitX=0;exitY=1;exitDx=0;exitDy=0;exitPerimeter=0;entryX=1;entryY=0;entryDx=0;entryDy=0;entryPerimeter=0;" parent="1" source="243" target="379" edge="1">
                    <mxGeometry width="50" height="50" relative="1" as="geometry">
                        <mxPoint x="876.7600000000002" y="-237.75" as="sourcePoint"/>
                        <mxPoint x="-441.9499999999998" y="275" as="targetPoint"/>
                    </mxGeometry>
                </mxCell>
                <mxCell id="611" value="" style="ellipse;whiteSpace=wrap;html=1;fillColor=none;strokeWidth=3;strokeColor=#000000;" parent="1" vertex="1">
                    <mxGeometry x="707" y="-373" width="22.4" height="60" as="geometry"/>
                </mxCell>
                <mxCell id="-Yv9RH5pwTCra0XLEg7_-612" value="&lt;div style=&quot;&quot;&gt;&lt;span style=&quot;font-size: 15px;&quot;&gt;&lt;b style=&quot;font-size: 23px;&quot;&gt;R2&lt;/b&gt;&lt;/span&gt;&lt;/div&gt;" style="text;html=1;strokeColor=none;fillColor=none;align=left;verticalAlign=middle;whiteSpace=wrap;rounded=0;fontColor=#FFFFFF;" parent="1" vertex="1">
                    <mxGeometry x="560.95" y="-610" width="49.05" height="50" as="geometry"/>
                </mxCell>
                <mxCell id="-Yv9RH5pwTCra0XLEg7_-613" value="&lt;div style=&quot;&quot;&gt;&lt;span style=&quot;font-size: 15px;&quot;&gt;&lt;b style=&quot;font-size: 23px;&quot;&gt;R1&lt;/b&gt;&lt;/span&gt;&lt;/div&gt;" style="text;html=1;strokeColor=none;fillColor=none;align=left;verticalAlign=middle;whiteSpace=wrap;rounded=0;fontColor=#FFFFFF;" parent="1" vertex="1">
                    <mxGeometry x="930.39" y="-610" width="39.61" height="50" as="geometry"/>
                </mxCell>
                <mxCell id="-Yv9RH5pwTCra0XLEg7_-615" value="&lt;div style=&quot;&quot;&gt;&lt;span style=&quot;font-size: 23px;&quot;&gt;&lt;b&gt;CS1&lt;/b&gt;&lt;/span&gt;&lt;/div&gt;" style="text;html=1;strokeColor=none;fillColor=none;align=left;verticalAlign=middle;whiteSpace=wrap;rounded=0;fontColor=#000000;" parent="1" vertex="1">
                    <mxGeometry x="545.6" y="-340" width="49.05" height="50" as="geometry"/>
                </mxCell>
                <mxCell id="-Yv9RH5pwTCra0XLEg7_-616" value="&lt;div style=&quot;&quot;&gt;&lt;span style=&quot;font-size: 23px;&quot;&gt;&lt;b&gt;CS2&lt;/b&gt;&lt;/span&gt;&lt;/div&gt;" style="text;html=1;strokeColor=none;fillColor=none;align=left;verticalAlign=middle;whiteSpace=wrap;rounded=0;fontColor=#000000;" parent="1" vertex="1">
                    <mxGeometry x="910" y="-338" width="49.05" height="50" as="geometry"/>
                </mxCell>
                <mxCell id="-Yv9RH5pwTCra0XLEg7_-617" value="&lt;div style=&quot;font-size: 11px;&quot;&gt;&lt;span style=&quot;font-size: 11px;&quot;&gt;&lt;b style=&quot;font-size: 11px;&quot;&gt;B-D1&lt;/b&gt;&lt;/span&gt;&lt;/div&gt;" style="text;html=1;strokeColor=none;fillColor=none;align=left;verticalAlign=middle;whiteSpace=wrap;rounded=0;fontColor=#000000;fontSize=11;" parent="1" vertex="1">
                    <mxGeometry x="-775" y="288" width="49.05" height="50" as="geometry"/>
                </mxCell>
                <mxCell id="-Yv9RH5pwTCra0XLEg7_-618" value="&lt;div style=&quot;font-size: 11px;&quot;&gt;&lt;span style=&quot;font-size: 11px;&quot;&gt;&lt;b style=&quot;font-size: 11px;&quot;&gt;B-D2&lt;/b&gt;&lt;/span&gt;&lt;/div&gt;" style="text;html=1;strokeColor=none;fillColor=none;align=left;verticalAlign=middle;whiteSpace=wrap;rounded=0;fontColor=#000000;fontSize=11;" parent="1" vertex="1">
                    <mxGeometry x="-470" y="287" width="49.05" height="50" as="geometry"/>
                </mxCell>
                <mxCell id="-Yv9RH5pwTCra0XLEg7_-619" value="&lt;div style=&quot;font-size: 11px;&quot;&gt;&lt;b&gt;B-A1&lt;/b&gt;&lt;/div&gt;" style="text;html=1;strokeColor=none;fillColor=none;align=left;verticalAlign=middle;whiteSpace=wrap;rounded=0;fontColor=#FFFFFF;fontSize=11;" parent="1" vertex="1">
                    <mxGeometry x="-820" y="487" width="30" height="50" as="geometry"/>
                </mxCell>
                <mxCell id="-Yv9RH5pwTCra0XLEg7_-621" value="&lt;div style=&quot;font-size: 11px;&quot;&gt;&lt;span style=&quot;font-size: 11px;&quot;&gt;&lt;b style=&quot;font-size: 11px;&quot;&gt;B-A3&lt;/b&gt;&lt;/span&gt;&lt;/div&gt;" style="text;html=1;strokeColor=none;fillColor=none;align=left;verticalAlign=middle;whiteSpace=wrap;rounded=0;fontColor=#FFFFFF;fontSize=11;" parent="1" vertex="1">
                    <mxGeometry x="-409" y="476" width="30" height="50" as="geometry"/>
                </mxCell>
                <mxCell id="-Yv9RH5pwTCra0XLEg7_-622" value="&lt;div style=&quot;font-size: 11px;&quot;&gt;&lt;span style=&quot;font-size: 11px;&quot;&gt;&lt;b style=&quot;font-size: 11px;&quot;&gt;G-D1&lt;/b&gt;&lt;/span&gt;&lt;/div&gt;" style="text;html=1;strokeColor=none;fillColor=none;align=left;verticalAlign=middle;whiteSpace=wrap;rounded=0;fontColor=#000000;fontSize=11;" parent="1" vertex="1">
                    <mxGeometry x="124" y="291" width="49.05" height="50" as="geometry"/>
                </mxCell>
                <mxCell id="-Yv9RH5pwTCra0XLEg7_-623" value="&lt;div style=&quot;font-size: 11px;&quot;&gt;&lt;span style=&quot;font-size: 11px;&quot;&gt;&lt;b style=&quot;font-size: 11px;&quot;&gt;G-D2&lt;/b&gt;&lt;/span&gt;&lt;/div&gt;" style="text;html=1;strokeColor=none;fillColor=none;align=left;verticalAlign=middle;whiteSpace=wrap;rounded=0;fontColor=#000000;fontSize=11;" parent="1" vertex="1">
                    <mxGeometry x="429" y="291" width="49.05" height="50" as="geometry"/>
                </mxCell>
                <mxCell id="-Yv9RH5pwTCra0XLEg7_-624" value="&lt;div style=&quot;font-size: 11px;&quot;&gt;&lt;span style=&quot;font-size: 11px;&quot;&gt;&lt;b style=&quot;font-size: 11px;&quot;&gt;G-A1&lt;/b&gt;&lt;/span&gt;&lt;/div&gt;" style="text;html=1;strokeColor=none;fillColor=none;align=left;verticalAlign=middle;whiteSpace=wrap;rounded=0;fontColor=#FFFFFF;fontSize=11;" parent="1" vertex="1">
                    <mxGeometry x="79" y="492" width="30" height="50" as="geometry"/>
                </mxCell>
                <mxCell id="-Yv9RH5pwTCra0XLEg7_-625" value="&lt;div style=&quot;font-size: 11px;&quot;&gt;&lt;span style=&quot;font-size: 11px;&quot;&gt;&lt;b style=&quot;font-size: 11px;&quot;&gt;G-A2&lt;/b&gt;&lt;/span&gt;&lt;/div&gt;" style="text;html=1;strokeColor=none;fillColor=none;align=left;verticalAlign=middle;whiteSpace=wrap;rounded=0;fontColor=#FFFFFF;fontSize=11;" parent="1" vertex="1">
                    <mxGeometry x="318" y="489" width="30" height="50" as="geometry"/>
                </mxCell>
                <mxCell id="-Yv9RH5pwTCra0XLEg7_-626" value="&lt;div style=&quot;font-size: 11px;&quot;&gt;&lt;span style=&quot;font-size: 11px;&quot;&gt;&lt;b style=&quot;font-size: 11px;&quot;&gt;G-A3&lt;/b&gt;&lt;/span&gt;&lt;/div&gt;" style="text;html=1;strokeColor=none;fillColor=none;align=left;verticalAlign=middle;whiteSpace=wrap;rounded=0;fontColor=#FFFFFF;fontSize=11;" parent="1" vertex="1">
                    <mxGeometry x="490" y="483" width="30" height="50" as="geometry"/>
                </mxCell>
                <mxCell id="-Yv9RH5pwTCra0XLEg7_-627" value="&lt;div style=&quot;font-size: 11px;&quot;&gt;&lt;span style=&quot;font-size: 11px;&quot;&gt;&lt;b style=&quot;font-size: 11px;&quot;&gt;C-D1&lt;/b&gt;&lt;/span&gt;&lt;/div&gt;" style="text;html=1;strokeColor=none;fillColor=none;align=left;verticalAlign=middle;whiteSpace=wrap;rounded=0;fontColor=#000000;fontSize=11;" parent="1" vertex="1">
                    <mxGeometry x="1024" y="292" width="49.05" height="50" as="geometry"/>
                </mxCell>
                <mxCell id="-Yv9RH5pwTCra0XLEg7_-628" value="&lt;div style=&quot;font-size: 11px;&quot;&gt;&lt;span style=&quot;font-size: 11px;&quot;&gt;&lt;b style=&quot;font-size: 11px;&quot;&gt;C-D2&lt;/b&gt;&lt;/span&gt;&lt;/div&gt;" style="text;html=1;strokeColor=none;fillColor=none;align=left;verticalAlign=middle;whiteSpace=wrap;rounded=0;fontColor=#000000;fontSize=11;" parent="1" vertex="1">
                    <mxGeometry x="1329" y="291" width="49.05" height="50" as="geometry"/>
                </mxCell>
                <mxCell id="-Yv9RH5pwTCra0XLEg7_-629" value="&lt;div style=&quot;font-size: 11px;&quot;&gt;&lt;span style=&quot;font-size: 11px;&quot;&gt;&lt;b style=&quot;font-size: 11px;&quot;&gt;C-A1&lt;/b&gt;&lt;/span&gt;&lt;/div&gt;" style="text;html=1;strokeColor=none;fillColor=none;align=left;verticalAlign=middle;whiteSpace=wrap;rounded=0;fontColor=#FFFFFF;fontSize=11;" parent="1" vertex="1">
                    <mxGeometry x="981" y="492" width="30" height="50" as="geometry"/>
                </mxCell>
                <mxCell id="-Yv9RH5pwTCra0XLEg7_-630" value="&lt;div style=&quot;font-size: 11px;&quot;&gt;&lt;span style=&quot;font-size: 11px;&quot;&gt;&lt;b style=&quot;font-size: 11px;&quot;&gt;C-A2&lt;/b&gt;&lt;/span&gt;&lt;/div&gt;" style="text;html=1;strokeColor=none;fillColor=none;align=left;verticalAlign=middle;whiteSpace=wrap;rounded=0;fontColor=#FFFFFF;fontSize=11;" parent="1" vertex="1">
                    <mxGeometry x="1222" y="488" width="30" height="50" as="geometry"/>
                </mxCell>
                <mxCell id="-Yv9RH5pwTCra0XLEg7_-631" value="&lt;div style=&quot;font-size: 11px;&quot;&gt;&lt;span style=&quot;font-size: 11px;&quot;&gt;&lt;b style=&quot;font-size: 11px;&quot;&gt;C-A3&lt;/b&gt;&lt;/span&gt;&lt;/div&gt;" style="text;html=1;strokeColor=none;fillColor=none;align=left;verticalAlign=middle;whiteSpace=wrap;rounded=0;fontColor=#FFFFFF;fontSize=11;" parent="1" vertex="1">
                    <mxGeometry x="1391" y="482" width="30" height="50" as="geometry"/>
                </mxCell>
                <mxCell id="-Yv9RH5pwTCra0XLEg7_-632" value="&lt;div style=&quot;font-size: 11px;&quot;&gt;&lt;b style=&quot;font-size: 11px;&quot;&gt;J-D2&lt;/b&gt;&lt;/div&gt;" style="text;html=1;strokeColor=none;fillColor=none;align=left;verticalAlign=middle;whiteSpace=wrap;rounded=0;fontColor=#000000;fontSize=11;" parent="1" vertex="1">
                    <mxGeometry x="2231" y="292" width="49.05" height="50" as="geometry"/>
                </mxCell>
                <mxCell id="-Yv9RH5pwTCra0XLEg7_-633" value="&lt;div style=&quot;font-size: 11px;&quot;&gt;&lt;b&gt;J-D1&lt;/b&gt;&lt;/div&gt;" style="text;html=1;strokeColor=none;fillColor=none;align=left;verticalAlign=middle;whiteSpace=wrap;rounded=0;fontColor=#000000;fontSize=11;" parent="1" vertex="1">
                    <mxGeometry x="1926" y="292" width="49.05" height="50" as="geometry"/>
                </mxCell>
                <mxCell id="-Yv9RH5pwTCra0XLEg7_-634" value="&lt;div style=&quot;font-size: 11px;&quot;&gt;&lt;span style=&quot;font-size: 11px;&quot;&gt;&lt;b style=&quot;font-size: 11px;&quot;&gt;J-A1&lt;/b&gt;&lt;/span&gt;&lt;/div&gt;" style="text;html=1;strokeColor=none;fillColor=none;align=left;verticalAlign=middle;whiteSpace=wrap;rounded=0;fontColor=#FFFFFF;fontSize=11;" parent="1" vertex="1">
                    <mxGeometry x="1880" y="493" width="30" height="50" as="geometry"/>
                </mxCell>
                <mxCell id="-Yv9RH5pwTCra0XLEg7_-635" value="&lt;div style=&quot;font-size: 11px;&quot;&gt;&lt;span style=&quot;font-size: 11px;&quot;&gt;&lt;b style=&quot;font-size: 11px;&quot;&gt;J-A2&lt;/b&gt;&lt;/span&gt;&lt;/div&gt;" style="text;html=1;strokeColor=none;fillColor=none;align=left;verticalAlign=middle;whiteSpace=wrap;rounded=0;fontColor=#FFFFFF;fontSize=11;" parent="1" vertex="1">
                    <mxGeometry x="2119" y="488" width="30" height="50" as="geometry"/>
                </mxCell>
                <mxCell id="-Yv9RH5pwTCra0XLEg7_-636" value="&lt;div style=&quot;font-size: 11px;&quot;&gt;&lt;span style=&quot;font-size: 11px;&quot;&gt;&lt;b style=&quot;font-size: 11px;&quot;&gt;J-A3&lt;/b&gt;&lt;/span&gt;&lt;/div&gt;" style="text;html=1;strokeColor=none;fillColor=none;align=left;verticalAlign=middle;whiteSpace=wrap;rounded=0;fontColor=#FFFFFF;fontSize=11;" parent="1" vertex="1">
                    <mxGeometry x="2289" y="483" width="30" height="50" as="geometry"/>
                </mxCell>
                <mxCell id="-Yv9RH5pwTCra0XLEg7_-637" value="" style="rounded=1;whiteSpace=wrap;html=1;fillColor=#e1d5e7;strokeColor=#9673a6;" parent="1" vertex="1">
                    <mxGeometry x="1593.53" y="-645.75" width="540" height="377.75" as="geometry"/>
                </mxCell>
                <mxCell id="-Yv9RH5pwTCra0XLEg7_-638" value="&lt;font style=&quot;font-size: 40px;&quot; color=&quot;#000000&quot;&gt;&lt;b style=&quot;font-size: 40px;&quot;&gt;Device Naming Legend:&lt;/b&gt;&lt;/font&gt;" style="text;html=1;strokeColor=none;fillColor=none;align=center;verticalAlign=middle;whiteSpace=wrap;rounded=0;strokeWidth=2;fontSize=40;" parent="1" vertex="1">
                    <mxGeometry x="1622.03" y="-618" width="483" height="30" as="geometry"/>
                </mxCell>
                <mxCell id="-Yv9RH5pwTCra0XLEg7_-640" value="&lt;span style=&quot;font-size: 27px;&quot;&gt;R1 = Router 1&lt;/span&gt;" style="text;html=1;strokeColor=none;fillColor=none;align=left;verticalAlign=middle;whiteSpace=wrap;rounded=0;" parent="1" vertex="1">
                    <mxGeometry x="1613.05" y="-588" width="441.5" height="100" as="geometry"/>
                </mxCell>
                <mxCell id="-Yv9RH5pwTCra0XLEg7_-641" value="&lt;span style=&quot;font-size: 27px;&quot;&gt;CS1 = Core Switch 1&lt;br&gt;&lt;/span&gt;" style="text;html=1;strokeColor=none;fillColor=none;align=left;verticalAlign=middle;whiteSpace=wrap;rounded=0;" parent="1" vertex="1">
                    <mxGeometry x="1612.78" y="-508" width="501.5" height="100" as="geometry"/>
                </mxCell>
                <mxCell id="-Yv9RH5pwTCra0XLEg7_-642" value="&lt;span style=&quot;font-size: 27px;&quot;&gt;B-D1 - Distirbution Switch 1 for Building B&lt;br&gt;&lt;/span&gt;" style="text;html=1;strokeColor=none;fillColor=none;align=left;verticalAlign=middle;whiteSpace=wrap;rounded=0;" parent="1" vertex="1">
                    <mxGeometry x="1612.78" y="-438" width="530" height="100" as="geometry"/>
                </mxCell>
                <mxCell id="-Yv9RH5pwTCra0XLEg7_-643" value="&lt;span style=&quot;font-size: 27px;&quot;&gt;B-A1 - Access Switch 1 for Building B&lt;br&gt;&lt;/span&gt;" style="text;html=1;strokeColor=none;fillColor=none;align=left;verticalAlign=middle;whiteSpace=wrap;rounded=0;" parent="1" vertex="1">
                    <mxGeometry x="1613.05" y="-366" width="530" height="100" as="geometry"/>
                </mxCell>
            </root>
        </mxGraphModel>
    </diagram>
</mxfile>